<svg xmlns="http://www.w3.org/2000/svg" viewBox="0 0 500 500"><defs><style>.cls-1{isolation:isolate;}.cls-2{fill:#b8d8be;}.cls-3,.cls-6{fill:#575b5e;}.cls-13,.cls-3{opacity:0.16;mix-blend-mode:multiply;}.cls-4{fill:#d0a083;}.cls-5{fill:#808488;}.cls-7{fill:#5798b9;}.cls-8{fill:#5ea4d5;}.cls-9{fill:#e6b698;}.cls-10{fill:#8f959b;}.cls-11{fill:#90959b;}.cls-12{fill:#575a5d;}.cls-14{fill:#9a5b2b;}.cls-15{fill:#474a4d;}.cls-16{fill:#4a7f78;}.cls-17{fill:#9a7260;}.cls-18{fill:#eddd68;}.cls-19{fill:#65493c;}.cls-20{fill:#d0d8e7;}.cls-21{fill:#855f4c;}.cls-22{fill:#474b4d;}.cls-23{fill:#8c7fb6;}.cls-24{fill:#78543f;}.cls-25{fill:#5da3fb;}.cls-26{fill:#464a4d;}.cls-27{fill:#80665a;}.cls-28{fill:#ad6537;}.cls-29{fill:#b22350;}.cls-30{fill:#616568;}.cls-31{fill:#6e7276;}.cls-32{fill:#b28771;}.cls-33{fill:#467bf9;}.cls-34{fill:#90969c;}.cls-35{fill:#737676;}.cls-36{fill:#467bf7;}.cls-37{fill:#64493d;}.cls-38{fill:#426f64;}.cls-39{fill:#d69d59;}.cls-40{fill:#f0d3c3;}.cls-41{fill:#7bd8aa;}</style></defs><title>Asset 1</title><g class="cls-1"><g id="Layer_2" data-name="Layer 2"><g id="BACKGROUND_2" data-name="BACKGROUND 2"><rect class="cls-2" width="500" height="500"/></g><g id="BACKGROUND_1" data-name="BACKGROUND 1"><path class="cls-3" d="M286.59,171.87c8.77,5.06,8.81,13.26.1,18.32s-22.87,5.06-31.63,0-8.81-13.27-.1-18.32S277.83,166.81,286.59,171.87Z"/><path class="cls-4" d="M259.07,125.76s-1.36,3.78-.3,5c.6.3,1.06-.76,1.06-.76s.45,3.33,1.21,4.23,3-1.51,3-4.69S261.64,123.19,259.07,125.76Z"/><path class="cls-5" d="M263.25,87a48,48,0,0,0-3.22,13.3c-.81,7.86-2,25.39-2,25.39s2.42,2.62,5.44-.2c0,0,1.61-15.72,2.62-22.57s3.83-10.08,2.42-13.1S263.85,85.8,263.25,87Z"/><path class="cls-6" d="M279.32,175.48a6.57,6.57,0,0,1-2,4.53c-2.12,2.27-3.48,4.84-2.42,6.8s5.74,1.36,7.56-.15,1.51-3,3.17-5.14,2-3.33,1.36-5.59S282,174.28,279.32,175.48Z"/><path class="cls-6" d="M263.45,171a6.39,6.39,0,0,1-2.57,3.93c-2.27,1.66-3.48,3.33-3.17,5.89s4.53,2.27,6.65,1.21,1.66-2.12,3.17-3.78,2.57-1.81,2.87-3.63-.15-3.78-1.06-4.08A5.23,5.23,0,0,0,263.45,171Z"/><path class="cls-7" d="M262.24,122.28s.5,42,1.11,49.48c.2,1.81,4.64,3.63,6.45,1,1.81-3.43.71-38.59,2.92-45C272.11,123.09,264.45,121.47,262.24,122.28Z"/><path class="cls-8" d="M262.64,123.89a20.74,20.74,0,0,0,9.07,10.48c5.44,2.82,6.25,7.66,6.65,11.89s.4,29.42.81,30.23,3.83,4,8.06,0c.4-11.69.6-49.58-.2-54.41S262,121.68,262.64,123.89Z"/><path class="cls-9" d="M289.3,131.4a29.29,29.29,0,0,0-.5,4.13c0,1.51,1.51.1,1.51.1s.4,3.93,1.21,4.53,2.72-.71,3.12-3.83-.6-6.65-2-7.36S289.3,131.4,289.3,131.4Z"/><path class="cls-10" d="M278.76,83.79s9.67,6.45,10.68,8.67,1.41,8.46-.4,12.7-.6,19.55-1.21,22.57-8.67,4.23-13.7,3.43-12.7-4.23-12.7-10.08,1-16.73.6-19.35a44.42,44.42,0,0,1,.81-13.7c.5-2,2.94-2.3,2.94-2.3S269.43,83.69,278.76,83.79Z"/><path class="cls-11" d="M287.63,90.44s7,3.81,7.26,26.8c0,12.7-.2,14.31-.2,14.31s-3.83,3.63-5.84-.2c0-4.64.81-17.33-1.21-25.39S284,97.09,284,97.09,282.79,91,287.63,90.44Z"/><path class="cls-4" d="M270.5,82.78a1,1,0,0,1,0,.3c-.08.7-.37,2.48-.41,3.22s.81,1.91,2.72,1.81,5.14-1,6.15-3.33a53,53,0,0,1,.1-6.75Z"/><path class="cls-9" d="M281.58,77.69c-1.48,4.5-5.59,6-7.86,6.8s-5,.45-6.5-1.06-2.87-8.31-2-14.21,5.44-9.37,10.73-8.31S285.67,65.3,281.58,77.69Z"/><path class="cls-12" d="M266.72,67.45s1.35,4.06,7.58,4.87c3,.95,4.47,2.71,4.6,3.52,0,0,1.08-2.71,1.89-2.17s.81,2.17,0,3.52L280,78.55a9.82,9.82,0,0,1-.95,3c.88-.07,3.59-3.52,4.4-7.1s1.42-9.27-1.29-11A4.92,4.92,0,0,0,278.7,60c-3-1.08-6.16-1.83-9.74,1.08a11.78,11.78,0,0,0-4,11.43C265.37,71.72,267,69.48,266.72,67.45Z"/><g class="cls-13"><path class="cls-6" d="M237.08,201.17c8.77,5.06,8.81,13.26.1,18.32s-22.87,5.06-31.63,0-8.81-13.27-.1-18.32S228.32,196.11,237.08,201.17Z"/></g><path class="cls-14" d="M220.28,211s.19,4-.19,5.07-3.73,2.49-6.12,1.63a9,9,0,0,1-4.59-3.25c-.77-1.15-3.46-2.53-4.11-3.83-1-2,1-3.63,2.68-4a6.13,6.13,0,0,1,5.45,1.63C215,209.75,220.28,211,220.28,211Z"/><path class="cls-14" d="M238.61,205.59s.19,4-.19,5.07-3.73,2.49-6.12,1.63A9,9,0,0,1,227.7,209c-.77-1.15-3.46-2.53-4.11-3.83-1-2,1-3.63,2.68-4a6.13,6.13,0,0,1,5.45,1.63C233.35,204.34,238.61,205.59,238.61,205.59Z"/><path class="cls-15" d="M238.92,154.59a46.7,46.7,0,0,1-.66,11.94c-1.21,6.2-.05,35.52.35,39.35,0,0-3.43,4.23-8.26,0,0-11.29-2.82-30.83-1.41-43.13S238.92,154.59,238.92,154.59Z"/><path class="cls-6" d="M238.57,156.41c-.19.7-.91,7.26-10.83,11.19-5.44,2.82-6.25,7.66-6.65,11.89s-.4,31.44-.81,32.25-3.83,4-8.06,0c-.4-11.69-.6-51.59.2-56.43S239.17,154.19,238.57,156.41Z"/><path class="cls-9" d="M210.45,166.23s1.36,3.78.3,5c-.6.3-1.06-.76-1.06-.76s-.45,3.33-1.21,4.23-3-1.51-3-4.69S207.88,163.66,210.45,166.23Z"/><path class="cls-16" d="M222.7,118.22s-8.46,2.42-11.79,7.76c-1.29,2.07-1.41,8.46.4,12.7s.05,19.25.65,22.27,9.22,4.53,14.26,3.73,12.88-4.23,12.7-10.08c-.51-16.57-.51-24.71-1.21-28.62a13,13,0,0,0-3.33-6.35S231.56,116.4,222.7,118.22Z"/><path class="cls-6" d="M210.91,126s-2.72,1.11-3.12,10.38-2,28.82-2,30.43,3.63,3.83,5.44.81c2.13-3.55,2.42-17.94,2.82-19.75s2.22-13.3,1-16.93A8.54,8.54,0,0,0,210.91,126Z"/><path class="cls-4" d="M227.58,93.58s-4.69-1.36-8.62,1.06-4.53,5.14-4.38,8.92-.15,9.37,1.81,13.6,10.43.76,13-.91,5.29-8.31,5-13.45S232.27,94.49,227.58,93.58Z"/><path class="cls-4" d="M231.16,114.05s-2,4-2,5.39-3.06,3.24-7,2.52-4.31-1.62-4.31-1.62a19.25,19.25,0,0,0,2.52-5.21C220.92,112.79,231.16,114.05,231.16,114.05Z"/><path class="cls-12" d="M217.93,93.51a7.57,7.57,0,0,0-4.87,6.5c0,1.08,1.08,6.5,6.77,5.68.27.27.27,1.89.27,1.89s1.89-1.89,3,0-.81,5.14-2.71,4.6a6.48,6.48,0,0,0,1.08,3.52c1.08,1.35,4.6,3.25,6.77,2.44s7.85-6.5,8.39-14.62-3-6.77-3-6.77a8.21,8.21,0,0,0-5.68-4.87C223.34,90.53,217.93,93.51,217.93,93.51Z"/><path class="cls-3" d="M104.57,274.71c8.77,5.06,8.81,13.26.1,18.32S81.81,298.1,73,293s-8.81-13.27-.1-18.32S95.81,269.65,104.57,274.71Z"/><path class="cls-6" d="M92.62,284.08s-.19,4,.19,5.07,3.73,2.49,6.12,1.63a9,9,0,0,0,4.59-3.25c.77-1.15,3.46-2.53,4.11-3.83,1-2-1-3.63-2.68-4a6.13,6.13,0,0,0-5.45,1.63C97.88,282.83,92.62,284.08,92.62,284.08Z"/><path class="cls-6" d="M74.29,278.67s-.19,4,.19,5.07,3.73,2.49,6.12,1.63a9,9,0,0,0,4.59-3.25c.77-1.15,3.46-2.53,4.11-3.83,1-2-1-3.63-2.68-4a6.13,6.13,0,0,0-5.45,1.63C79.55,277.43,74.29,278.67,74.29,278.67Z"/><path class="cls-17" d="M74,227.68a46.7,46.7,0,0,0,.66,11.94c1.21,6.2.05,35.52-.35,39.35,0,0,2,4.63,6.83.4,0-11.29,4.26-31.23,2.85-43.53S74,227.68,74,227.68Z"/><path class="cls-17" d="M74.33,229.5c.19.7.91,7.26,10.83,11.19,5.44,2.82,6.25,7.66,6.65,11.89s.4,31.44.81,32.25,2.12,4,6.35,0c.4-11.69,2.32-51.56,1.51-56.4S73.73,227.28,74.33,229.5Z"/><path class="cls-16" d="M74,227.68l-1,25.71s8.12,5.41,13.26.54c-.27-1.62.27-11.1.27-11.1l1.35,13s8.66,5.68,14.34-.54c-.54-7.85-1.28-21.25-1.28-21.25S77.94,238.24,74,227.68Z"/><path class="cls-17" d="M78.22,194.57s-4.87.18-5.23,4.87,4,7.22,9,6.5S78.22,194.57,78.22,194.57Z"/><path class="cls-18" d="M90.2,191.31s8.46,2.42,11.79,7.76c1.29,2.07,1.41,8.46-.4,12.7s-.05,19.25-.65,22.27-9.22,4.53-14.26,3.73S73.8,233.52,74,227.68c.51-16.57.51-24.71,1.21-28.62a13,13,0,0,1,3.33-6.35S81.33,189.49,90.2,191.31Z"/><path class="cls-17" d="M85.31,166.67s4.69-1.36,8.62,1.06,4.53,5.14,4.38,8.92.15,9.37-1.81,13.6-10.43.76-13-.91-5.29-8.31-5-13.45S80.63,167.58,85.31,166.67Z"/><path class="cls-17" d="M81.74,187.14s2,4,2,5.39,3.06,3.24,7,2.52S95,193.43,95,193.43a19.25,19.25,0,0,1-2.52-5.21C92,185.88,81.74,187.14,81.74,187.14Z"/><path class="cls-12" d="M98.07,173.82s-.9-6.68-2.35-9c-4-1.44-12.27-.72-15.34,2.35-2.17,2-3.25,7.76-3.25,7.76s-.54,4.33,3.07,10.28a18.23,18.23,0,0,1,2.35,4.15c.72-.18,4.51,2.17,8.12,0l1.62-4.87s-3.07-4.69-1.08-6.32,2.71,1.62,2.71,1.62l.72-1.62-1.26-4.51Z"/><path class="cls-17" d="M101.49,200.52s-2.53-2.53-5.77.72-.72,8.3,3.61,9.74,13.71.36,17.68-2.89-1.44-17.68-5.41-20.57a44.84,44.84,0,0,0-2.35-5.23c-.9-1.44-4-3.07-4.15-2.17s0,4.69.54,5.59c-.54-.18-2.71-.18-2.71.36s1.08,1.44,2.89,1.62a4,4,0,0,1,2.71,1.44s4.51,9.74,3.61,13C110.7,203.59,106.91,204,101.49,200.52Z"/><path class="cls-3" d="M207.16,316.5c8.77,5.06,8.81,13.26.1,18.32s-22.87,5.06-31.63,0-8.81-13.27-.1-18.32S198.39,311.44,207.16,316.5Z"/><path class="cls-19" d="M186.49,320.11a6.57,6.57,0,0,0,2,4.53c2.12,2.27,3.48,4.84,2.42,6.8s-5.74,1.36-7.56-.15-1.51-3-3.17-5.14-2-3.33-1.36-5.59S183.77,318.9,186.49,320.11Z"/><path class="cls-19" d="M202.36,315.58a6.39,6.39,0,0,0,2.57,3.93c2.27,1.66,3.48,3.33,3.17,5.89s-4.53,2.27-6.65,1.21-1.66-2.12-3.17-3.78-2.57-1.81-2.87-3.63.15-3.78,1.06-4.08A5.23,5.23,0,0,1,202.36,315.58Z"/><path class="cls-7" d="M203.57,266.91s-.5,42-1.11,49.48c-.2,1.81-4.64,3.63-6.45,1-1.81-3.43-.71-38.59-2.92-45C193.7,267.71,201.36,266.1,203.57,266.91Z"/><path class="cls-8" d="M203.17,268.52A20.74,20.74,0,0,1,194.1,279c-5.44,2.82-6.25,7.66-6.65,11.89s-.4,29.42-.81,30.23-3.83,4-8.06,0c-.4-11.69-.6-49.58.2-54.41S203.77,266.3,203.17,268.52Z"/><path class="cls-4" d="M201,232.88s4.06,1.35,5.68,8.12,2.17,8.66,2.17,8.66a20.52,20.52,0,0,1,6.5-3.25c3.79-1.08,4.87-3.52,4.87-3.52s-.81-2.17,0-3-.54-4.6.54-4.06,1.89,2.71,1.89,4.06v1.35s2.71-2.17,4.33-1.08,0,2.44,0,2.44a4.19,4.19,0,0,1,.54,3c-.27,1.89-3,2.44-4.33,2.44s-6.77,5.14-10.28,6.77-4.33,4.33-5.68,3.52-7-5.41-8.66-9.2S193.67,238,201,232.88Z"/><path class="cls-20" d="M187,228.42s-9.67,6.45-10.68,8.67-1.41,8.46.4,12.7.6,19.55,1.21,22.57,8.67,4.23,13.7,3.43,12.7-4.23,12.7-10.08-1-16.73-.6-19.35a34.14,34.14,0,0,0-.76-12c-.5-2-3.38-3.38-3.38-3.38S196.65,229.36,187,228.42Z"/><path class="cls-4" d="M181.4,249.21c.9-7.22,0-11-2-11.91s-3.05-.22-3.05-.22a16.43,16.43,0,0,0-4,12.13c0,3.25-1.8,11-1.44,14.25s.36,8.73,1.32,11.09a10.73,10.73,0,0,0-1.09,6.41c.4,3.12,2.32,4.43,3.12,3.83s1.21-4.53,1.21-4.53,1.51,1.41,1.51-.1a29.29,29.29,0,0,0-.5-4.13,9.89,9.89,0,0,0-1.34-1.69c.85-1.37,1.36-7.73,1.36-11.06S180.5,256.43,181.4,249.21Z"/><path class="cls-4" d="M184.23,222.32c1.48,4.5,5.59,6,7.86,6.8s5,.45,6.5-1.06,2.87-8.31,2-14.21-5.44-9.37-10.73-8.31S180.14,209.92,184.23,222.32Z"/><path class="cls-4" d="M195.31,227.41a1,1,0,0,0,0,.3c.08.7.37,2.48.41,3.22s-.81,1.91-2.72,1.81-5.14-1-6.15-3.33a53,53,0,0,0-.1-6.75Z"/><path class="cls-21" d="M196.92,223.55a7.4,7.4,0,0,0-1.62-.27c-.68,0-2.3,1.62-2.3,1.62l-2.3-.27a7.12,7.12,0,0,0,2.84,1.22,7.35,7.35,0,0,0,3.38-1.08,8.72,8.72,0,0,0,1.89.81c.41,0,2.17-1.89,2.17-1.89l-1.62.54-1.62-1.49Z"/><path class="cls-20" d="M181.77,214.48s13.71,3.34,19.67.45a40.9,40.9,0,0,0-.54-4.33s-9.56.36-16.24-.81Z"/><path class="cls-21" d="M195,211.23s-1.22,6-3.11,7.85c-.95,1.08-4.74,1.89-4.74,1.89a20.62,20.62,0,0,0,2.17-3.11c-1.49,1.62-2.44,2.71-3.92,3a12.62,12.62,0,0,1-3.38,0l.95-1.22-2.57.95a4.12,4.12,0,0,0,1.22-3.25,31.31,31.31,0,0,1,1.76-9.34c1.08-2.84,4.47-3.92,4.47-3.92l5.28.68a15.78,15.78,0,0,1,4.74,0c2.44.41,5,3.7,5.19,5.32s-.18,6.68,0,7.4a3.52,3.52,0,0,0,1.08,1.44s-2.89-.54-3.43-1.26-2.53-7.4-2.53-7.4l-1.62.54-1.26-1.26Z"/><g class="cls-13"><path class="cls-6" d="M258.09,338.61c8.77,5.06,8.81,13.26.1,18.32s-22.87,5.06-31.63,0-8.81-13.27-.1-18.32S249.33,333.55,258.09,338.61Z"/></g><path class="cls-8" d="M234.79,348a8.64,8.64,0,0,1-4,.36c-2-.36-4.15-.9-5.05,0s-.18,2,2.35,3.07a33.46,33.46,0,0,0,5.23,1.62c.54.18,2.89,1.08,4.15.54s1.26-2.53,1.08-3.07a17.4,17.4,0,0,1-.36-2.17Z"/><path class="cls-8" d="M255.09,341.25a8.64,8.64,0,0,1-4,.36c-2-.36-4.15-.9-5.05,0s-.18,2,2.35,3.07a33.46,33.46,0,0,0,5.23,1.62c.54.18,2.89,1.08,4.15.54s1.26-2.53,1.08-3.07a17.4,17.4,0,0,1-.36-2.17Z"/><path class="cls-22" d="M259.93,292a46.7,46.7,0,0,1-.66,11.94c-1.21,6.2-1.07,35.16-.67,39,0,0-1.26,3.43-5.23-.18,0-11.29-4.83-30.29-3.42-42.58S259.93,292,259.93,292Z"/><path class="cls-6" d="M259.58,293.85c-.19.7-.91,7.26-10.83,11.19-5.3,3.1-5.43,7.53-5.84,11.76s-4.29,30.77-4.69,31.58-.76,4.83-5,.8c-.4-11.69-.6-51.59.2-56.43S260.18,291.63,259.58,293.85Z"/><path class="cls-4" d="M253,256.35a19.59,19.59,0,0,1,8.12,4.87c3.25,3.52,7.85,9.74,9.2,13s-9.47,14.07-11.64,15.43c-2.44,1.08-3.25-2.17-1.89-3.52s6.22-9.47,6.22-10.28-10.28-8.12-11.64-10.83S250,257.71,253,256.35Z"/><path class="cls-23" d="M243.71,255.66s-8.46,2.42-11.79,7.76c-1.29,2.07-1.81,8.66.4,12.7,4.45,8.12-1,14.61.65,22.27.64,3,9.22,4.53,14.26,3.73s14-4.37,12.7-10.08c-4.93-22.15-.51-24.71-1.21-28.62a13,13,0,0,0-3.33-6.35S252.58,253.84,243.71,255.66Z"/><path class="cls-4" d="M248.59,231s-4.69-1.36-8.62,1.06-4.53,5.14-4.38,8.92-.15,9.37,1.81,13.6,10.43.76,13-.91,5.29-8.31,5-13.45S253.28,231.93,248.59,231Z"/><path class="cls-4" d="M252.17,251.49s-2,4-2,5.39-3.06,3.24-7,2.52-4.31-1.62-4.31-1.62a19.25,19.25,0,0,0,2.52-5.21C241.93,250.23,252.17,251.49,252.17,251.49Z"/><path class="cls-21" d="M238.13,232.27a9.58,9.58,0,0,0-3,7.58c.27,4.87,4.87,4.06,6,6.5.81-1.08,0-3.52,0-3.52s1.89,1.89,2.17,3.25.27,3.79,1.62,5.41,6.27,2.26,6.27,2.26,5.37-5.23,5.91-11.73-1.91-12.35-6.5-13C240.83,227.66,238.13,232.27,238.13,232.27Z"/><path class="cls-24" d="M252.74,235s1.89-4.6,5.41-3.25,6,3.25,6,8.93-.54,10,3,13.53c-1.08,1.08-6.5.27-8.39-3.79a18.37,18.37,0,0,1-1.89-7V248s-3.72-1.76-2.44-10C254.58,236.59,250.85,238.49,252.74,235Z"/><path class="cls-4" d="M237.59,263.66s-8.66-7.31-11.64-13c-2.9-5.53,1.12-16.18,1.58-21a10.78,10.78,0,0,0,2.57-2.2c.72-1.08,3.07-2.17,2.35-2.53s-3.07.54-3.07.54,3.79-4.69,4-6-3.07-.54-5.05.9-4,7.4-3.7,9.38c-.81,1.08-5.68,8.39-6.22,15.43s1.35,9.47,1.35,9.47,6.5,15.43,12.45,18.95S240.29,267.45,237.59,263.66Z"/><g class="cls-13"><path class="cls-6" d="M303.43,432.38c8.77,5.06,8.81,13.26.1,18.32s-22.87,5.06-31.63,0-8.81-13.27-.1-18.32S294.67,427.32,303.43,432.38Z"/></g><path class="cls-25" d="M286.63,442.2s.19,4-.19,5.07-3.73,2.49-6.12,1.63a9,9,0,0,1-4.59-3.25c-.77-1.15-3.46-2.53-4.11-3.83-1-2,1-3.63,2.68-4a6.13,6.13,0,0,1,5.45,1.63C281.37,441,286.63,442.2,286.63,442.2Z"/><path class="cls-25" d="M305,436.79s.19,4-.19,5.07-3.73,2.49-6.12,1.63a9,9,0,0,1-4.59-3.25c-.77-1.15-3.46-2.53-4.11-3.83-1-2,1-3.63,2.68-4a6.13,6.13,0,0,1,5.45,1.63C299.7,435.55,305,436.79,305,436.79Z"/><path class="cls-26" d="M305.27,385.8a46.7,46.7,0,0,1-.66,11.94c-1.21,6.2-.05,35.52.35,39.35,0,0-3.43,4.23-8.26,0,0-11.29-2.82-30.83-1.41-43.13S305.27,385.8,305.27,385.8Z"/><path class="cls-6" d="M304.92,387.62c-.19.7-.91,7.26-10.83,11.19-5.44,2.82-6.25,7.66-6.65,11.89s-.4,31.44-.81,32.25-3.83,4-8.06,0c-.4-11.69-.6-51.59.2-56.43S305.52,385.4,304.92,387.62Z"/><path class="cls-27" d="M276.8,397.44s1.36,3.78.3,5c-.6.3-1.06-.76-1.06-.76s-.45,3.33-1.21,4.23-3-1.51-3-4.69S274.24,394.87,276.8,397.44Z"/><path class="cls-25" d="M289,349.43s-8.46,2.42-11.79,7.76c-1.29,2.07-1.41,8.46.4,12.7s.05,19.25.65,22.27,9.22,4.53,14.26,3.73,12.88-4.23,12.7-10.08c-.51-16.57-.51-24.71-1.21-28.62a13,13,0,0,0-3.33-6.35S297.92,347.61,289,349.43Z"/><path class="cls-7" d="M277.26,357.18s-2.72,1.11-3.12,10.38-2,28.82-2,30.43,3.63,3.83,5.44.81c2.13-3.55,2.42-17.94,2.82-19.75s2.22-13.3,1-16.93A8.54,8.54,0,0,0,277.26,357.18Z"/><path class="cls-27" d="M293.94,324.79s-4.69-1.36-8.62,1.06-4.53,5.14-4.38,8.92-.15,9.37,1.81,13.6,10.43.76,13-.91,5.29-8.31,5-13.45S298.62,325.69,293.94,324.79Z"/><path class="cls-27" d="M297.51,345.26s-2,4-2,5.39-3.06,3.24-7,2.52-4.31-1.62-4.31-1.62a19.25,19.25,0,0,0,2.52-5.21C287.27,344,297.51,345.26,297.51,345.26Z"/><path class="cls-26" d="M280.85,332.1s1.26,3.07,5.41,1.8,5,0,4.51,2.71a13.6,13.6,0,0,1-1.08,2.53s2.71-2.17,3.43-.36.36,3.07-1.44,3.79a3.51,3.51,0,0,0-2.17,2.17s1.62,2.17,3.79,2.35a7.34,7.34,0,0,0,3.61-.54,17,17,0,0,0,4.33-11.37c.18-7.4-4.51-10.47-7.22-11S280.67,322.89,280.85,332.1Z"/><path class="cls-3" d="M183.89,176.12c8.77,5.06,8.81,13.26.1,18.32s-22.87,5.06-31.63,0-8.81-13.27-.1-18.32S175.13,171.06,183.89,176.12Z"/><path class="cls-6" d="M163.23,179.74a6.57,6.57,0,0,0,2,4.53c2.12,2.27,3.48,4.84,2.42,6.8s-5.74,1.36-7.56-.15-1.51-3-3.17-5.14-2-3.33-1.36-5.59S160.5,178.53,163.23,179.74Z"/><path class="cls-6" d="M179.1,175.2a6.39,6.39,0,0,0,2.57,3.93c2.27,1.66,3.48,3.33,3.17,5.89s-4.53,2.27-6.65,1.21-1.66-2.12-3.17-3.78-2.57-1.81-2.87-3.63.15-3.78,1.06-4.08A5.23,5.23,0,0,1,179.1,175.2Z"/><path class="cls-14" d="M180.31,126.53s-.5,42-1.11,49.48c-.2,1.81-4.64,3.63-6.45,1-1.81-3.43-.71-38.59-2.92-45C170.43,127.34,178.09,125.73,180.31,126.53Z"/><path class="cls-28" d="M179.9,128.15a20.74,20.74,0,0,1-9.07,10.48c-5.44,2.82-6.25,7.66-6.65,11.89s-.4,29.42-.81,30.23-3.83,4-8.06,0c-.4-11.69-.6-49.58.2-54.41S180.51,125.93,179.9,128.15Z"/><path class="cls-4" d="M178,93.27s3.43,1.62,4.15,7.58a90,90,0,0,0,2.17,12.27s4,1.62,7,3.07,4.33,1.26,4.33,1.26a11.51,11.51,0,0,1,3.25-2.53l1.08-.54a3.4,3.4,0,0,1-.54,2.17l-.72,1.26s4,0,4.87.54-1.8,2.17-1.8,2.17a11,11,0,0,1-3.25,1.8c-1.44.36-4.69-1.44-4.69-1.44s-8.12-.72-10.65-2.35-4.87-4.15-5.59-7S170.95,95.07,178,93.27Z"/><path class="cls-6" d="M178.89,92s3.07,0,5.05,8.84a70.72,70.72,0,0,1,1.08,7.76s-2.71,4-8.3,1.44a47.83,47.83,0,0,1-1.62-9.2C174.92,96.7,178.17,92.19,178.89,92Z"/><path class="cls-29" d="M163.78,88s-9.67,6.45-10.68,8.67-1.41,8.46.4,12.7.6,19.55,1.21,22.57,8.67,4.23,13.7,3.43,12.7-4.23,12.7-10.08-1-16.73-.6-19.35a45.63,45.63,0,0,0-.81-13.7c-.23-.94-3.34-2-3.34-2S173.11,87.95,163.78,88Z"/><path class="cls-4" d="M153.09,100.53s-5.82,11.37-3.92,20.43c1.62,3.25,9.34,1.89,12.86-.54.27-.14,2.44.68,3.52-1.62l.41-.41s2.44-.41,3-1.35-1.76-3-3.25-2.84-4.06,3.11-4.06,3.11-6.09.95-7.85.27c0-.68,3.11-11.37,4.6-13.94s2-4.74-.14-5.82S154.3,98.1,153.09,100.53Z"/><path class="cls-6" d="M154.91,94.69s-6.34,3.63-7.24,19c0,.9,6,4.15,9.74.54,1.26-5.23,1.8-8.3,2.89-10.65s1.62-4.33-.72-6.68S155.84,93.95,154.91,94.69Z"/><path class="cls-4" d="M172,87a1,1,0,0,0,0,.3c.08.7.37,2.48.41,3.22s-.81,1.91-2.72,1.81-5.14-1-6.15-3.33a53,53,0,0,0-.1-6.75Z"/><path class="cls-9" d="M161,81.94c1.48,4.5,5.59,6,7.86,6.8s5,.45,6.5-1.06,2.87-8.31,2-14.21-5.44-9.37-10.73-8.31S156.88,69.55,161,81.94Z"/><path class="cls-21" d="M163,65.75s3.11-4.6,8.93-1.76,6.36,5.28,8.93,4.87c-.14.95-.41,4.33-6.09,5a18.56,18.56,0,0,1-10-1.62,6.8,6.8,0,0,1,1.08,4.06c0,2.71-.68,2.71-.68,2.71s-.81-3.65-2.17-3.38-1.35,3.65-.27,4.87,1.76.68,1.76.68a1.43,1.43,0,0,1-1,1.12,1,1,0,0,1-1.33-.3,5.6,5.6,0,0,0,1.62,1.76c0,.41-1.35.41-1.35.41A8.9,8.9,0,0,0,164,85.78c-.27.27-2.17.54-4.06-2.17A13.4,13.4,0,0,1,157.55,74c.41-3.92,1.89-5,1.89-5A4.21,4.21,0,0,1,163,65.75Z"/><path class="cls-3" d="M383,220.94c8.77,5.06,8.81,13.26.1,18.32s-22.87,5.06-31.63,0-8.81-13.27-.1-18.32S374.25,215.88,383,220.94Z"/><path class="cls-6" d="M375.74,224.56a6.57,6.57,0,0,1-2,4.53c-2.12,2.27-3.48,4.84-2.42,6.8s5.74,1.36,7.56-.15,1.51-3,3.17-5.14,2-3.33,1.36-5.59S378.46,223.35,375.74,224.56Z"/><path class="cls-6" d="M359.87,220A6.39,6.39,0,0,1,357.3,224c-2.27,1.66-3.48,3.33-3.17,5.89s4.53,2.27,6.65,1.21,1.66-2.12,3.17-3.78,2.57-1.81,2.87-3.63-.15-3.78-1.06-4.08A5.23,5.23,0,0,0,359.87,220Z"/><path class="cls-30" d="M358.66,171.36s.5,42,1.11,49.48c.2,1.81,4.64,3.63,6.45,1,1.81-3.43.71-38.59,2.92-45C368.53,172.16,360.88,170.55,358.66,171.36Z"/><path class="cls-31" d="M359.06,173a20.74,20.74,0,0,0,9.07,10.48c5.44,2.82,6.25,7.66,6.65,11.89s.4,29.42.81,30.23,3.83,4,8.06,0c.4-11.69.6-49.58-.2-54.41S358.46,170.75,359.06,173Z"/><path class="cls-31" d="M359.76,136.83a125.66,125.66,0,0,0-6.22,18.4c-.81,1.35-7.58-.54-11.64-2.17,0,0-3.52,1.62-1.62,6,1.35,1.08,11.64,4.6,15.7,4.87a49.26,49.26,0,0,0,8.93-20C366,137.1,363,134.93,359.76,136.83Z"/><path class="cls-9" d="M385.72,180.48a29.29,29.29,0,0,0-.5,4.13c0,1.51,1.51.1,1.51.1s.4,3.93,1.21,4.53,2.72-.71,3.12-3.83-.6-6.65-2-7.36S385.72,180.48,385.72,180.48Z"/><path class="cls-31" d="M375.18,132.86s9.67,6.45,10.68,8.67,1.41,8.46-.4,12.7-.6,19.55-1.21,22.57-8.67,4.23-13.7,3.43-11.87-1.64-11.87-7.49.18-19.32-.22-21.94a40.7,40.7,0,0,1,.9-13C359.86,135.76,365.85,132.5,375.18,132.86Z"/><path class="cls-31" d="M384.05,139.51s6.65,5,7.26,26.8c0,12.7-.2,14.31-.2,14.31s-3.83,3.63-5.84-.2c0-4.64.81-17.33-1.21-25.39s-3.63-8.87-3.63-8.87S379.22,140.12,384.05,139.51Z"/><path class="cls-4" d="M341.72,154.15s-2.35-4.15-3.61-5.05c-.9,0-.36,3.61-.36,3.61s-6.13-3.43-6.32-2.71,3.79,3.43,3.79,3.43-5.23-1.26-4.87-.54,4.87,2.35,4.87,2.35-3.61-.54-3.79.36,4.69,1.08,4.69,1.08-3.43,1.26-2.71,1.8,3.07-.36,3.07-.36,2.71,1.08,4.51.54S342.8,155.77,341.72,154.15Z"/><path class="cls-20" d="M364.64,134.26s-1.44,14.66,2.53,24.76c0,0,8.84-19.67,11.37-23.82-1.26-1.08-3.83-3.07-5.82-3.61S364.64,134.26,364.64,134.26Z"/><polygon class="cls-29" points="367.97 138.95 366.89 140.84 368.51 142.47 370 140.71 369.19 139.09 367.97 138.95"/><path class="cls-29" d="M367.75,141.57l-2.17,11.91s.45,4.2,1.58,5.55c1.4-1.08,3.7-7.44,3.7-7.44l-2-10.28Z"/><path class="cls-12" d="M367.16,159s8.89-20.84,11.37-23.82c1,1.89,1,12.59,1,12.59l-6.36,2.3,1.22,2.71Z"/><path class="cls-12" d="M364.64,134.26s-3.52,6.5-4.2,12.45l3,1.89L362.2,151s2.07,5.82,5,8C365.85,154,364,139.13,364.64,134.26Z"/><circle class="cls-6" cx="366.87" cy="162.88" r="0.61"/><circle class="cls-6" cx="366.46" cy="170.93" r="0.61"/><path class="cls-4" d="M366.92,131.86a1,1,0,0,1,0,.3c-.08.7-.37,2.48-.41,3.22s.81,1.91,2.72,1.81,5.14-1,6.15-3.33a53,53,0,0,1,.1-6.75Z"/><path class="cls-9" d="M378,126.77c-1.48,4.5-5.59,6-7.86,6.8s-5,.45-6.5-1.06-2.87-8.31-2-14.21,5.44-9.37,10.73-8.31S382.09,114.37,378,126.77Z"/><path class="cls-12" d="M374.24,116.94a15.09,15.09,0,0,1-12.86,3.25s-.54-14.89,15-9.61a7.93,7.93,0,0,1,4.33,5.14c.81,3.65-1.56,10.69-3.45,12.59a15.07,15.07,0,0,1-.61-3.25,4.1,4.1,0,0,0,1.42-3.86c-.47-2.37-2-.74-2,1a4.14,4.14,0,0,0-.47,1l-.27-1.76S373.5,120.32,374.24,116.94Z"/><path class="cls-30" d="M360.49,177.07s5.77,5.05,23.28,2.35c0-.54.18-1.8.18-1.8S369.51,180.86,360.49,177.07Z"/><g class="cls-13"><path class="cls-6" d="M323.84,222.81c8.77,5.06,8.81,13.26.1,18.32s-22.87,5.06-31.63,0-8.81-13.27-.1-18.32S315.07,217.75,323.84,222.81Z"/></g><path class="cls-6" d="M315.8,224.3a4.25,4.25,0,0,0,1.7,3.22c1.73,1.31,7.32,3.41,5.84,5.34.26,1.07-3.36,1-5.81-.27s-3.67-3-4.57-2.9-1.26.1-1.67-.59.47-5.65.47-5.65S315.31,225,315.8,224.3Z"/><path class="cls-4" d="M319.28,171.61c0,.81-.27,11.37-.81,22.46s-1.08,15.43-1.08,15.43-1.08,13-1.62,14.89-3,1.08-3.79,0c-.54-1.62.81-16-.54-25.17s-3.52-17.05-4.06-20.84S319.28,171.61,319.28,171.61Z"/><path class="cls-6" d="M300.34,226.28s-.54,2.44,2.17,4.87,5.41,3.52,6,5.14-3.79,2.44-6.77.54-4.06-4.33-4.87-4.33,0,.27-.81,0c0,0-1.26-.36-1.53-1.26a34.81,34.81,0,0,1,.9-5.41S300.16,226.55,300.34,226.28Z"/><path class="cls-4" d="M318.47,175.67c-.19.7-1.24,6-7.69,9.65-5.44,2.82-5.82,7.72-6.65,11.89-.63,3.13-5.89,17.08-3.88,29.79.14.89-.76,4.47-5,.44-.4-11.69-.6-49.58.2-54.41S319.08,173.45,318.47,175.67Z"/><path class="cls-6" d="M294.93,171.34A30.21,30.21,0,0,0,293,185.68c1.08,7.31.27,11.37.27,11.37s7.58,4.87,13.8,1.89,11.91-3.52,12.72-6.5c.81-6,1.62-18.4-1.35-22.73S315,176.21,294.93,171.34Z"/><path class="cls-4" d="M317.75,136.6a9.66,9.66,0,0,1,5.23,5.23c1.62,4-.18,11.73-.18,11.73s2.35-5.41,5.77-8.12,3.79-3.79,3.79-3.79,0-2.89.9-3.79c.54.18.72,2.71.72,2.71s2.35-2.35,4-2.35c1.44.36-.18,4.15-1.62,5.41a5.42,5.42,0,0,1-3.25,1.26s-5.05,7.76-6.13,9.74-4.51,3.79-6.32,4S316.31,142.92,317.75,136.6Z"/><path class="cls-29" d="M303.73,134.73s-9.67,6.45-10.68,8.67-1.54,8.61,1.61,12c7.43,7.93-3.25,11.8-1.08,22.92.59,3,9.75,4.62,14.79,3.81s11.19-3.29,11.19-9.13-4-11.3,1.08-18.4c3.52-4.87-1.35-9.2-1-15.59.12-2.07-3.43-3.43-3.43-3.43S312.59,132.92,303.73,134.73Z"/><path class="cls-20" d="M309.81,140.21s-.54,7.85.54,11.91c1.08.81,2.44-.81,2.71-1.89l.27-1.35s3.52,2.17,3.52.81-5.68-9.47-5.68-9.47Z"/><path class="cls-4" d="M293,143.4A9.1,9.1,0,0,0,293.3,154c4.06,5.41,9.74,8.93,11.64,9.47s11.91-1.08,14.89-4.87c.54.27,2.71-.54,3-1.62s-2.17-2.44-3.79-1.89a3.63,3.63,0,0,0-2.17,1.89s-8.39.81-10.28.81-7-7.58-7.58-10S295.76,142.53,293,143.4Z"/><path class="cls-32" d="M312,133.73a1,1,0,0,0,0,.3c.08.7.37,2.48.41,3.22s-.81,1.91-2.72,1.81-5.14-1-6.15-3.33a53,53,0,0,0-.1-6.75Z"/><path class="cls-4" d="M300.9,128.64c1.48,4.5,5.59,6,7.86,6.8s5,.45,6.5-1.06,2.87-8.31,2-14.21-5.44-9.37-10.73-8.31S296.82,116.24,300.9,128.64Z"/><path class="cls-21" d="M304.4,116.94a7.47,7.47,0,0,0,5.14,4.06c3.79.81,6.77.27,8.39,2.71-.27-2.71.54-9.47-5.68-11.91s-9.2.81-9.2.81-4.6.81-4.87,4.6-.81,7.85,1.08,11.91.27,6.22-1.08,7c0,.81,4.06,3.79,6.77,1.08s1.35-9.2.54-10.83S304.4,116.94,304.4,116.94Z"/><path class="cls-4" d="M127.47,202.93s-1.36,3.78-.3,5c.6.3,1.06-.76,1.06-.76s.45,3.33,1.21,4.23,3-1.51,3-4.69S130,200.36,127.47,202.93Z"/><path class="cls-33" d="M131.65,164.18a48,48,0,0,0-3.22,13.3c-.81,7.86-2,25.39-2,25.39s2.42,2.62,5.44-.2c0,0,1.61-15.72,2.62-22.57S138.3,170,136.89,167,132.25,163,131.65,164.18Z"/><g class="cls-13"><path class="cls-6" d="M155,249c8.77,5.06,8.81,13.26.1,18.32s-22.87,5.06-31.63,0-8.81-13.27-.1-18.32S146.23,244,155,249Z"/></g><path class="cls-34" d="M147.72,252.66a6.57,6.57,0,0,1-2,4.53c-2.12,2.27-3.48,4.84-2.42,6.8s5.74,1.36,7.56-.15,1.51-3,3.17-5.14,2-3.33,1.36-5.59S150.44,251.45,147.72,252.66Z"/><path class="cls-34" d="M131.85,248.12a6.39,6.39,0,0,1-2.57,3.93c-2.27,1.66-3.48,3.33-3.17,5.89s4.53,2.27,6.65,1.21,1.66-2.12,3.17-3.78,2.57-1.81,2.87-3.63-.15-3.78-1.06-4.08A5.23,5.23,0,0,0,131.85,248.12Z"/><path class="cls-26" d="M130.64,199.45s.5,42,1.11,49.48c.2,1.81,4.64,3.63,6.45,1,1.81-3.43.71-38.59,2.92-45C140.51,200.26,132.86,198.64,130.64,199.45Z"/><path class="cls-6" d="M131,201.06a20.74,20.74,0,0,0,9.07,10.48c5.44,2.82,6.25,7.66,6.65,11.89s.4,29.42.81,30.23,3.83,4,8.06,0c.4-11.69.6-49.58-.2-54.41S130.44,198.85,131,201.06Z"/><path class="cls-9" d="M157.7,208.57a29.29,29.29,0,0,0-.5,4.13c0,1.51,1.51.1,1.51.1s.4,3.93,1.21,4.53,2.72-.71,3.12-3.83-.6-6.65-2-7.36S157.7,208.57,157.7,208.57Z"/><path class="cls-23" d="M147.16,161s9.67,6.45,10.68,8.67,1.41,8.46-.4,12.7-.6,19.55-1.21,22.57-8.67,4.23-13.7,3.43-12.7-4.23-12.7-10.08,1-16.73.6-19.35a44.42,44.42,0,0,1,.81-13.7c.5-2,3.43-3.43,3.43-3.43S138.3,159.14,147.16,161Z"/><path class="cls-33" d="M156,167.61s6.65,5,7.26,26.8c0,12.7-.2,14.31-.2,14.31s-3.83,3.63-5.84-.2c0-4.64.81-17.33-1.21-25.39s-3.63-8.87-3.63-8.87S151.2,168.21,156,167.61Z"/><path class="cls-4" d="M138.9,160a1,1,0,0,1,0,.3c-.08.7-.37,2.48-.41,3.22s.81,1.91,2.72,1.81,5.14-1,6.15-3.33a53,53,0,0,1,.1-6.75Z"/><path class="cls-9" d="M150,154.86c-1.48,4.5-5.59,6-7.86,6.8s-5,.45-6.5-1.06-2.87-8.31-2-14.21,5.44-9.37,10.73-8.31S154.07,142.47,150,154.86Z"/><path class="cls-21" d="M137.16,146.48a3.54,3.54,0,0,1-5.14-2.17c-1.62-4.06,1.89-4.06,1.89-4.06a4.45,4.45,0,0,1,1.35-4.87c2.44-1.89,6,0,6,0s2.17-3.79,6-1.35,3.52,4.87,3.52,4.87,3-.81,4.06,3-1.62,5.41-1.62,5.41,1.62,0,1.08,3-3.52,5.41-4.6,5.41-1.35-2.44-1.35-2.44a3.15,3.15,0,0,0,2.17-3.25c0-2.71-3-.27-3-.27s-3.25,1.62-3.52-1.35l-.27-3S141.49,151.35,137.16,146.48Z"/><g class="cls-13"><path class="cls-6" d="M159.71,360.5c8.77,5.06,8.81,13.26.1,18.32s-22.87,5.06-31.63,0-8.81-13.27-.1-18.32S150.94,355.44,159.71,360.5Z"/></g><path class="cls-6" d="M114.39,357.83a13,13,0,0,1-3.43-2.71c-1.62-1.8-4.51-4.69-6.68-3.43s-2.17,4.33-1.26,6,4.51,3.43,6.13,5.41,3.61,4.33,5.77,4,3.61-3.07,4.51-4.87S114.39,357.83,114.39,357.83Z"/><path class="cls-20" d="M160.22,317.77s.72,18.77,2.89,24.18c0,0,15.88-6.13,17-5.05s4,3.61,1.44,7.22c0,0-19.49,10.47-24.54,8.66s-9.38-29.23-10.1-31.4S156.25,314.89,160.22,317.77Z"/><path class="cls-20" d="M134.59,320.27s-17.13,30.7-21.1,37.92a4.87,4.87,0,0,0,4,5.05c4.33,1.08,24-30.31,27.25-32.12s13-4.33,14.8-14.8C155.53,312.72,134.59,320.27,134.59,320.27Z"/><path class="cls-6" d="M179.67,336.49s-3.16,0-2.89,4.87,2.71,4.6,3.52,6.5,1.35,6.22,5.41,8.12,5.68-.81,6-3-4.06-7.85-5.14-10.83S183.36,334.87,179.67,336.49Z"/><path class="cls-35" d="M181,336a2.77,2.77,0,0,0-1.49,3.11c.41,2.3,1.22,5.28,3.38,7.31s2,6.09,4.06,7.58,3.79,1.35,4.6-.68-2.3-6.09-3.65-8.25S185.3,336.09,181,336Z"/><path class="cls-4" d="M157,279a16.59,16.59,0,0,1,5.29,14.17c-1.08,8.93-12.18.81-12.45-5.14S155.25,277.78,157,279Z"/><path class="cls-36" d="M145.32,277.54s-8.46,2.42-11.79,7.76c-1.29,2.07-1.41,8.46.4,12.7s.05,19.25.65,22.27,9.22,4.53,14.26,3.73,12.88-4.23,12.7-10.08c-.51-16.57-.51-24.71-1.21-28.62A13,13,0,0,0,157,279S154.19,275.73,145.32,277.54Z"/><path class="cls-4" d="M154.45,322.1c1.44-6.13-2.17-21.65-3.25-23.82s-10.8-14.78-17.67-13c0,0-4.35,6.13-.38,10.46,3.25,2.89,9,6.5,10.83,9s5,16.42,4.87,20.3l.18.12c-.61,1-1.75,2.87-1.62,3.4.18.72,0,3.25,1.26,4.33s2.89-.72,3.07-2.17.36-2.53.36-2.53,2.89-1.8,2.71-3.61A20.33,20.33,0,0,0,154.45,322.1Z"/><path class="cls-4" d="M150.21,252.91s-4.69-1.36-8.62,1.06-4.53,5.14-4.38,8.92-.15,9.37,1.81,13.6,10.43.76,13-.91,5.29-8.31,5-13.45S154.9,253.81,150.21,252.91Z"/><path class="cls-4" d="M153.79,273.38s-2,4-2,5.39-3.06,3.24-7,2.52-4.31-1.62-4.31-1.62a19.25,19.25,0,0,0,2.52-5.21C143.54,272.12,153.79,273.38,153.79,273.38Z"/><path class="cls-22" d="M137.21,262.88s-1.71-11.24,6.41-12.32,13.26.54,15.16,6.77-2.17,13-4.06,15.43c0,0-6.22,0-9.2-4.87a62.32,62.32,0,0,1-4.06-6.77Z"/><path class="cls-36" d="M136.77,259.49s10.1,7.4,21.83,5.59c.36-1.8.72-3.07.72-3.07s-18.22-2.71-21.47-6.13A6.89,6.89,0,0,0,136.77,259.49Z"/><g class="cls-13"><path class="cls-6" d="M399.34,309.52c8.77,5.06,8.81,13.26.1,18.32s-22.87,5.06-31.63,0-8.81-13.27-.1-18.32S390.57,304.46,399.34,309.52Z"/></g><path class="cls-37" d="M392.06,313.14a6.57,6.57,0,0,1-2,4.53c-2.12,2.27-3.48,4.84-2.42,6.8s5.74,1.36,7.56-.15,1.51-3,3.17-5.14,2-3.33,1.36-5.59S394.78,311.93,392.06,313.14Z"/><path class="cls-37" d="M376.19,308.61a6.39,6.39,0,0,1-2.57,3.93c-2.27,1.66-3.48,3.33-3.17,5.89s4.53,2.27,6.65,1.21,1.66-2.12,3.17-3.78,2.57-1.81,2.87-3.63-.15-3.78-1.06-4.08A5.23,5.23,0,0,0,376.19,308.61Z"/><path class="cls-26" d="M375,259.94s.5,42,1.11,49.48c.2,1.81,4.64,3.63,6.45,1,1.81-3.43.71-38.59,2.92-45C384.86,260.74,377.2,259.13,375,259.94Z"/><path class="cls-6" d="M375.39,261.55A20.74,20.74,0,0,0,384.45,272c5.44,2.82,6.25,7.66,6.65,11.89s.4,29.42.81,30.23,3.83,4,8.06,0c.4-11.69.6-49.58-.2-54.41S374.78,259.33,375.39,261.55Z"/><path class="cls-38" d="M376,224.76A156.24,156.24,0,0,0,369.73,244c-.81,1.35-7.58-.54-11.64-2.17,0,0-3.52,1.62-1.62,6,1.35,1.08,11.64,4.6,15.7,4.87a49.26,49.26,0,0,0,8.93-20C382.18,225.84,379.2,222.86,376,224.76Z"/><path class="cls-9" d="M358.22,243.34s-1.8-4-3.25-4.33-.54,2.35-.54,2.35-5.41,1.8-5.59,3.79,3.61,2.53,4.87,2.71S359.31,247,358.22,243.34Z"/><path class="cls-16" d="M391.51,221.44s9.67,6.45,10.68,8.67,1.41,8.46-.4,12.7-.6,19.55-1.21,22.57-8.67,4.23-13.7,3.43-12.7-4.23-12.7-10.08,1-16.73.6-19.35a44.42,44.42,0,0,1,.81-13.7c.5-2,3.43-3.43,3.43-3.43S382.64,219.63,391.51,221.44Z"/><path class="cls-16" d="M402.19,230.11s-7.7,4.66-4.72,10.62c.54.27,7.31,5.41,7.85,9.2-.27,2.71-8.12,4.33-8.12,4.33s-1.89,3.79,1.62,5.41,12.45-3.52,14.62-7.58S404.2,231.4,402.19,230.11Z"/><path class="cls-9" d="M398.28,256.33s-1.44-2.53-2.35-2.89-.36,2-.36,2l-2.17-1.26s-2.71.18-2.53.9,1.26,3.79,2.89,4.69,5.59,1.26,6.13,0S398.28,256.33,398.28,256.33Z"/><path class="cls-4" d="M383.25,220.44a1,1,0,0,1,0,.3c-.08.7-.37,2.48-.41,3.22s.81,1.91,2.72,1.81,5.14-1,6.15-3.33a53,53,0,0,1,.1-6.75Z"/><path class="cls-9" d="M394.33,215.35c-1.48,4.5-5.59,6-7.86,6.8s-5,.45-6.5-1.06-2.87-8.31-2-14.21,5.44-9.37,10.73-8.31S398.41,203,394.33,215.35Z"/><path class="cls-21" d="M391.51,199.32c-6.77-2.62-11.46-.36-12.72,4.69,0,0,3.25,2.89,6.5,1.26s6.13-2.35,7-.9-.81,6.45-.81,6.45-.14,3.65-2.17,5.55-4.06-2-6.5-2.3-4.6.41-4.6,1.89a11.41,11.41,0,0,0,1.08,5.41c.95,1.62,3.58,2.09,7.54.91a11.12,11.12,0,0,0,6.94-5.65c-.54-.27-2-.79-1.87-1.61a32.84,32.84,0,0,1,.92-4.2s.36-1.22,1.8-.68l.81.63S398.28,201.93,391.51,199.32Zm-10.42,20.3c-1.62,0-1.76-.95-1.76-.95a6.24,6.24,0,0,0,.68-1.89,3.65,3.65,0,0,1,2.57.27,5.28,5.28,0,0,1,1.89,2.17A17.53,17.53,0,0,1,381.09,219.62Z"/><path class="cls-3" d="M340.12,344.14c8.77,5.06,8.81,13.26.1,18.32s-22.87,5.06-31.63,0-8.81-13.27-.1-18.32S331.36,339.08,340.12,344.14Z"/><path class="cls-19" d="M328.17,353.51s-.19,4,.19,5.07,3.73,2.49,6.12,1.63a9,9,0,0,0,4.59-3.25c.77-1.15,3.46-2.53,4.11-3.83,1-2-1-3.63-2.68-4a6.13,6.13,0,0,0-5.45,1.63C333.43,352.26,328.17,353.51,328.17,353.51Z"/><path class="cls-19" d="M309.84,348.1s-.19,4,.19,5.07,3.73,2.49,6.12,1.63a9,9,0,0,0,4.59-3.25c.77-1.15,3.46-2.53,4.11-3.83,1-2-1-3.63-2.68-4a6.13,6.13,0,0,0-5.45,1.63C315.1,346.86,309.84,348.1,309.84,348.1Z"/><path class="cls-7" d="M309.53,297.11a46.7,46.7,0,0,0,.66,11.94c1.21,6.2.05,35.52-.35,39.35,0,0,3.43,4.23,8.26,0,0-11.29,2.82-30.83,1.41-43.13S309.53,297.11,309.53,297.11Z"/><path class="cls-8" d="M309.88,298.93c.19.7.91,7.26,10.83,11.19,5.44,2.82,6.25,7.66,6.65,11.89s.4,31.44.81,32.25,3.83,4,8.06,0c.4-11.69.6-51.59-.2-56.43S309.27,296.71,309.88,298.93Z"/><path class="cls-9" d="M352,275.82a17.42,17.42,0,0,1,1.89-2.44c.54-.41,4.47-1.22,4.6-.54s-2,1.62-2,1.62,4.2.95,5,2.17-3.92,1.89-5.14,1.89a6,6,0,0,0-2.57.81S350.62,278.53,352,275.82Z"/><path class="cls-29" d="M325.75,260.74s8.46,2.42,11.79,7.76c1.29,2.07,1.41,8.46-.4,12.7s-.05,19.25-.65,22.27-9.22,4.53-14.26,3.73-12.88-4.23-12.7-10.08c.51-16.57.51-24.71,1.21-28.62a13,13,0,0,1,3.33-6.35S316.88,258.92,325.75,260.74Z"/><path class="cls-39" d="M336.08,267.94a7.56,7.56,0,0,1,3.66,5.58c.77,4.23,3.85,10.78,3.85,10.78l7.55-9.24a4.83,4.83,0,0,1,3.46,4.47s-7.89,13-11.55,14.14S332.43,279.3,331.27,276,332.62,266.4,336.08,267.94Z"/><path class="cls-40" d="M320.86,236.1s4.69-1.36,8.62,1.06,4.53,5.14,4.38,8.92c-.19,4.73-.15,10-1.81,13.6-2,4.23-10.43.76-13-.91s-5.29-8.31-5-13.45S316.18,237,320.86,236.1Z"/><path class="cls-40" d="M317.29,256.57s2,4,2,5.39,3.06,3.24,7,2.52,4.31-1.62,4.31-1.62a19.25,19.25,0,0,1-2.52-5.21C327.53,255.31,317.29,256.57,317.29,256.57Z"/><path class="cls-39" d="M329.1,234s1.35.54,4.06,1.89l2.71,1.35-2.17,1.89a5.71,5.71,0,0,1,2.71,3c.27,1.08-1.89.54-1.89.54a10.82,10.82,0,0,1,.27,3c0,2.17-1.89,0-4.6-.54.81.54,1.08,2.71,1.08,2.71a59.36,59.36,0,0,1-6-1.08,25.92,25.92,0,0,1,1.35,4.6s-2.44-3-3-1.08.81,5.14,2.44,4.87l1.08-.27a5.93,5.93,0,0,1-2.44,3.52,20,20,0,0,1-5.41,1.62s-5.14-5.41-5.68-6.5a20.87,20.87,0,0,1-2.44-8.66,11.27,11.27,0,0,1,2.71-6.77,9.24,9.24,0,0,1,1.35-3c1.08-1.62,6-1.08,6.77-1.35a31.42,31.42,0,0,0,3.79-2.44l.27,2.71,4.06-1.62Z"/><path class="cls-3" d="M428.43,354.1c8.77,5.06,8.81,13.26.1,18.32s-22.87,5.06-31.63,0-8.81-13.27-.1-18.32S419.67,349,428.43,354.1Z"/><path class="cls-22" d="M411.63,363.91s.19,4-.19,5.07-3.73,2.49-6.12,1.63a9,9,0,0,1-4.59-3.25c-.77-1.15-3.46-2.53-4.11-3.83-1-2,1-3.63,2.68-4a6.13,6.13,0,0,1,5.45,1.63C406.37,362.67,411.63,363.91,411.63,363.91Z"/><path class="cls-22" d="M430,358.51s.19,4-.19,5.07-3.73,2.49-6.12,1.63a9,9,0,0,1-4.59-3.25c-.77-1.15-3.46-2.53-4.11-3.83-1-2,1-3.63,2.68-4a6.13,6.13,0,0,1,5.45,1.63C424.7,357.26,430,358.51,430,358.51Z"/><path class="cls-22" d="M430.27,307.52a46.7,46.7,0,0,1-.66,11.94c-1.21,6.2-.05,35.52.35,39.35,0,0-3.43,4.23-8.26,0,0-11.29-2.82-30.83-1.41-43.13S430.27,307.52,430.27,307.52Z"/><path class="cls-22" d="M429.92,309.33c-.19.7-.91,7.26-10.83,11.19-5.44,2.82-6.25,7.66-6.65,11.89s-.4,31.44-.81,32.25-3.83,4-8.06,0c-.4-11.69-.6-51.59.2-56.43S430.52,307.11,429.92,309.33Z"/><path class="cls-4" d="M425.74,272.55A16.59,16.59,0,0,1,431,286.72c-1.08,8.93-12.18.81-12.45-5.14S424,271.37,425.74,272.55Z"/><path class="cls-20" d="M414,271.14s-8.46,2.42-11.79,7.76c-1.29,2.07-1.41,8.46.4,12.7s.05,19.25.65,22.27,9.22,4.53,14.26,3.73,12.88-4.23,12.7-10.08c-.51-16.57-.51-24.71-1.21-28.62a13,13,0,0,0-3.33-6.35S422.92,269.33,414,271.14Z"/><path class="cls-4" d="M402.33,278.87s-11.1,15.16-7,21.11,9.74-4.33,11.91-8.39,3.79-10.28.27-11.91S402.33,278.87,402.33,278.87Z"/><path class="cls-4" d="M418.94,246.5s-4.69-1.36-8.62,1.06-4.53,5.14-4.38,8.92-.15,9.37,1.81,13.6,10.43.76,13-.91,5.29-8.31,5-13.45S423.62,247.41,418.94,246.5Z"/><path class="cls-4" d="M422.51,267s-2,4-2,5.39-3.06,3.24-7,2.52-4.31-1.62-4.31-1.62a19.25,19.25,0,0,0,2.52-5.21C412.27,265.72,422.51,267,422.51,267Z"/><path class="cls-20" d="M405.85,254.51s1.08,2.17,4.6,0c2.71.81,2.71,2.17,2.44,4.33s1.62-1.08,3,.54,1.08,3.52-1.08,4.87.27,4.06.27,4.06,4.06,3,6.77,0,7-9.74,3.79-17.59S406.94,241.52,405.85,254.51Z"/><g class="cls-13"><path class="cls-6" d="M246.13,429.06c8.77,5.06,8.81,13.26.1,18.32s-22.87,5.06-31.63,0-8.81-13.27-.1-18.32S237.36,424,246.13,429.06Z"/></g><path class="cls-6" d="M234.17,438.43s-.19,4,.19,5.07,3.73,2.49,6.12,1.63a9,9,0,0,0,4.59-3.25c.77-1.15,3.46-2.53,4.11-3.83,1-2-1-3.63-2.68-4a6.13,6.13,0,0,0-5.45,1.63C239.43,437.18,234.17,438.43,234.17,438.43Z"/><path class="cls-6" d="M215.84,433s-.19,4,.19,5.07,3.73,2.49,6.12,1.63a9,9,0,0,0,4.59-3.25c.77-1.15,3.46-2.53,4.11-3.83,1-2-1-3.63-2.68-4a6.13,6.13,0,0,0-5.45,1.63C221.1,431.78,215.84,433,215.84,433Z"/><path class="cls-7" d="M215.53,382a46.7,46.7,0,0,0,.66,11.94c1.21,6.2.05,35.52-.35,39.35,0,0,3.43,4.23,8.26,0,0-11.29,2.82-30.83,1.41-43.13S215.53,382,215.53,382Z"/><path class="cls-8" d="M215.88,383.85c.19.7.91,7.26,10.83,11.19,5.44,2.82,6.25,7.66,6.65,11.89s.4,31.44.81,32.25,3.83,4,8.06,0c.4-11.69.6-51.59-.2-56.43S215.28,381.63,215.88,383.85Z"/><path class="cls-4" d="M260.73,350.61s-2.89-4.15-1.8-4.15,2.17,1.35,2.17,1.35-1.89-6.22-1.08-6a10.71,10.71,0,0,1,5.41,2.71c2.17,2.17.27,8.93-1.08,9.47S260.73,350.61,260.73,350.61Z"/><path class="cls-41" d="M231.75,345.66s8.46,2.42,11.79,7.76c1.29,2.07,1.41,8.46-.4,12.7s-.05,19.25-.65,22.27-9.22,4.53-14.26,3.73-12.88-4.23-12.7-10.08c.51-16.57.51-24.71,1.21-28.62a13,13,0,0,1,3.33-6.35S222.88,343.84,231.75,345.66Z"/><path class="cls-8" d="M241.6,352.05s-7.22,2.17-5.05,8.66,20.57,5.05,20.57,5.05,6.86-7.94,7.58-12.63c.72-.36-2.53-3.25-4-2.53s-6.5,9-6.5,9S243,351.33,241.6,352.05Z"/><path class="cls-4" d="M226.86,321s4.69-1.36,8.62,1.06,4.53,5.14,4.38,8.92.15,9.37-1.81,13.6-10.43.76-13-.91-5.29-8.31-5-13.45S222.18,321.92,226.86,321Z"/><path class="cls-4" d="M223.29,341.49s2,4,2,5.39,3.06,3.24,7,2.52,4.31-1.62,4.31-1.62a19.25,19.25,0,0,1-2.52-5.21C233.53,340.23,223.29,341.49,223.29,341.49Z"/><path class="cls-21" d="M240.25,325.08s1.89,2.17-1.62,6l-3.52,3.79s-.81-3-2.44-1.89-1.08,5.68.54,6.5c1.35.81,1.62-.54,1.62-.54s-1.08,3.25-3.25,4.6-2.79,1.23-6.54.21-6.18-7.51-6.45-14,4.06-11.37,9.74-10.56a23.79,23.79,0,0,1,9.74,3.79l-.81-2.71S239.17,320.75,240.25,325.08Z"/></g></g></g></svg>