<svg xmlns="http://www.w3.org/2000/svg" viewBox="0 0 680.99 418.12"><defs><style>.cls-1{fill:#e8bda3;}.cls-2{fill:#574646;}.cls-3{fill:#8b715b;}.cls-4{fill:#425a97;}.cls-5{fill:#cba68f;}.cls-6{fill:#463109;}.cls-7{fill:#e7bca2;}.cls-8{fill:#362b2b;}.cls-9{fill:#6a5645;}.cls-10{fill:#42a977;}.cls-11{fill:#a94509;}.cls-12{fill:#332746;}.cls-13{fill:#24658d;}.cls-14{fill:#d13854;}.cls-15{fill:#c99209;}.cls-16{fill:#db8600;}.cls-17{fill:#755c4c;}.cls-18{fill:#4d3d6d;}.cls-19{fill:#b1a18d;}.cls-20{fill:#813300;}.cls-21{fill:#a9412c;}.cls-22{fill:#79796d;}.cls-23{fill:#ffe0c2;}.cls-24{fill:#816f86;}.cls-25{fill:#605759;}.cls-26{fill:#c76a90;}.cls-27{fill:#7090c0;}.cls-28{fill:#ff902c;}.cls-29{fill:#ac7a60;}.cls-30{fill:#c76845;}.cls-31{fill:#79ba90;}.cls-32{fill:#40597e;}.cls-33{fill:#454557;}.cls-34{fill:#5b72ae;}.cls-35{fill:#8b459f;}.cls-36{fill:#c08d15;}.cls-37{fill:#cf5939;}.cls-38{fill:#794542;}.cls-39{fill:#5bb0ae;}.cls-40{fill:#ffce7a;}.cls-41{fill:#a96d15;}.cls-42{fill:#ffedcf;}.cls-43{fill:#884815;}.cls-44{fill:#7e571a;}.cls-45{fill:#c4332e;}.cls-46{fill:#3d404c;}.cls-47{fill:#fff;}.cls-48{fill:#5ea254;}.cls-49{fill:#b85e46;}.cls-50{fill:#604c42;}.cls-51{fill:#ecc98b;}.cls-52{fill:#5c4036;}.cls-53{fill:#59689d;}.cls-54{fill:#ba4a4c;}.cls-55{fill:#a15954;}.cls-56{fill:#797c81;}.cls-57{fill:#406042;}.cls-58{fill:#986118;}.cls-59{fill:#684210;}.cls-60{fill:#667431;}.cls-61{fill:#90a445;}.cls-62{fill:#427277;}.cls-63{fill:#cea109;}</style></defs><title>Asset 3</title><g id="Layer_2" data-name="Layer 2"><g id="BACKGROUND_2" data-name="BACKGROUND 2"><path class="cls-1" d="M309.77,277.56l-4.32,12.1s-9.15,2-10.58,2.23-5.28,5.44-9.25,3-.53-3.73,1.67-4,3-1,2-1.35-3,.62-3-.34,2.69-1.75,4.21-1.28a10.34,10.34,0,0,0,4.27.27c1.1-.15,7.72-3.47,7.72-3.47l1.28-7.57Z"/><path class="cls-2" d="M319.85,343c-.78.58-6.09,1.9-5.56,4.87s10.93-.35,10.69-3.71C324.81,341.67,320.63,342.41,319.85,343Z"/><path class="cls-2" d="M309.07,338.69c-.78.58-6.09,1.9-5.56,4.87s10.93-.36,10.7-3.71C314,337.37,309.85,338.12,309.07,338.69Z"/><path class="cls-3" d="M306.28,303s1.78,36.13,3.39,36.9,4.43.25,4.43.25l2-36.88Z"/><path class="cls-3" d="M316.15,303.21s2.87,39.46,4.48,40.6,4.43.25,4.43.25l1.69-40.57Z"/><path class="cls-4" d="M320.16,266.68s7.13.74,7.39,7.06.34,29.07.34,29.93-3.06,4.71-12.39,4.21c-8.89-.47-10.1-3-10.1-4.54,0-3.22.45-27.75,2.15-33S316.38,265.56,320.16,266.68Z"/><path class="cls-5" d="M313.49,262.54s0,6.92.78,7.47,5-.18,5-2.56-.05-5.52-.05-5.52Z"/><path class="cls-4" d="M311.8,267.7s-5.23-.35-6.59,3.14-3.58,9.55-1.9,10.1a14.26,14.26,0,0,0,3.9,1C307.92,281.85,312.12,271.73,311.8,267.7Z"/><path class="cls-1" d="M309.06,252.44s-.63,13.9,3.86,14.57c3.38.5,8-1,8.13-5.62S322.65,250,319.47,250,308.69,249.35,309.06,252.44Z"/><path class="cls-6" d="M323.28,251.64s.26,4.65.18,6.72-2.46,4.28-3.28,3.46-.46-8.43-.46-8.43Z"/><path class="cls-6" d="M315,247.39s-6.56.3-7.3,3.29.15,5.32,1.32,5.12,6.26-2,7.1-3.15c0,0,2,7.58,3.79,5.91s4.74-4.53,2.78-8.77S315,247.39,315,247.39Z"/><path class="cls-1" d="M319.54,259.09s.94-2.42,2.39-1.39.28,5-1.5,4.35S319.54,259.09,319.54,259.09Z"/><path class="cls-7" d="M329.13,278.45s.29,6.52,0,11.95c-.14,3.13-.46,6.76-.56,7.56-.25,2-.81,6.13-.81,6.13a26,26,0,0,0,.25,2.81c.5,2.22.92,6.35-2.73,7-3.1.58-2.2-4.35-1.08-8.17.19-.63-.25-4.39-.31-7.42-.08-3.55.23-4.38.13-8.31a73.88,73.88,0,0,0-1.37-10.94Z"/><path class="cls-4" d="M327.66,270.23c-1.26-1.57-5.44-2.37-6.65.67s0,13.2,1.26,13.73a10.54,10.54,0,0,0,4.41.4,3.78,3.78,0,0,0,2.94-2C330.26,282,329.8,272.89,327.66,270.23Z"/><path class="cls-7" d="M193.16,32.34S191.91,43.45,191.75,47s-.08,6.67,0,8.08-1.95,4.69-.17,6.67c2.33,2.58,4.5.58,4-2.83s.42-5.5.58-7.5S196.08,32,196.08,32Z"/><path class="cls-2" d="M208.52,96c-.78.58-6.09,1.9-5.57,4.87s10.93-.35,10.7-3.71C213.47,94.67,209.3,95.41,208.52,96Z"/><path class="cls-8" d="M205.58,91.27c-.64.73-5.56,3.12-4.43,5.92s10.62-2.62,9.69-5.85C210.16,89,206.23,90.55,205.58,91.27Z"/><path class="cls-9" d="M196.62,56.34A52.1,52.1,0,0,0,198,74.84c2.46,8.53,7.54,17.23,8.38,17.43,1.74.42,4.39-.68,4.39-.68l-5.27-18.26-.38-18.25Z"/><path class="cls-3" d="M204.82,56.21s2.87,39.46,4.48,40.6,4.44.25,4.44.25l1.69-40.57Z"/><path class="cls-10" d="M208.83,19.68s7.13.74,7.39,7.06.34,29.07.34,29.93-3.05,4.71-12.39,4.21c-8.89-.47-9.14-3.24-9.14-4.78,0-3.22.68-26.67,2.37-31.87S205,18.56,208.83,19.68Z"/><path class="cls-5" d="M202.15,15.54s0,6.92.78,7.47,5-.18,5-2.56-.05-5.52-.05-5.52Z"/><path class="cls-10" d="M200.46,20.7s-5.23-.35-6.59,3.14-3.58,9.55-1.9,10.1a14.27,14.27,0,0,0,3.9,1C196.59,34.85,200.79,24.73,200.46,20.7Z"/><path class="cls-1" d="M197.73,5.44s-.63,13.9,3.86,14.57c3.38.5,8-1,8.13-5.62S211.32,3,208.14,3,197.36,2.35,197.73,5.44Z"/><path class="cls-11" d="M211.95,4.64s.26,4.65.18,6.72-2.46,4.28-3.28,3.46-.46-8.43-.46-8.43Z"/><path class="cls-11" d="M203.67.39s-4.58,0-6.2,3c-1.47,2.72,1.11,3.2,2.25,3.5,1.44.38,5.62,1.31,7.19.75,0,0-.11,5.58,1.67,3.91S213.32,7,211.36,2.8,203.67.39,203.67.39Z"/><path class="cls-1" d="M208.21,12.09s.95-2.42,2.39-1.39.28,5-1.5,4.35S208.21,12.09,208.21,12.09Z"/><path class="cls-7" d="M218.61,30.11a46.77,46.77,0,0,1,2.08,10.73c.17,3.13-.81,14.9-.81,14.9a25.91,25.91,0,0,0,.53,2.77c.72,2.16,1.55,6.22-2,7.27-3,.89-2.63-4.11-1.91-8,.12-.64-.44-12.88-.95-16.78a30.12,30.12,0,0,0-3.3-9.6Z"/><path class="cls-10" d="M215.49,22c-1.54-1.31-5.79-1.3-6.4,1.92s2.5,13,3.85,13.24a10.53,10.53,0,0,0,4.4-.45,3.78,3.78,0,0,0,2.5-2.56C220.27,33,218.1,24.23,215.49,22Z"/><path class="cls-7" d="M347.58,202.7s.25,3.08.42,4.83-.5,6.25-.67,9.75-.08,6.67,0,8.08-1.95,4.69-.17,6.67c2.33,2.58,4.5.58,4-2.83s.42-5.5.58-7.5-.08-19.42-.08-19.42Z"/><path class="cls-12" d="M362.85,266.32c-.78.58-6.09,1.9-5.57,4.87s10.93-.35,10.7-3.71C367.8,265,363.63,265.74,362.85,266.32Z"/><path class="cls-12" d="M352.07,262c-.78.58-6.09,1.9-5.57,4.87s10.93-.36,10.7-3.71C357,260.7,352.85,261.45,352.07,262Z"/><path class="cls-13" d="M349.28,226.29s1.78,36.13,3.39,36.9,4.44.25,4.44.25l2-36.88Z"/><path class="cls-13" d="M359.15,226.54s2.87,39.46,4.48,40.6,4.44.25,4.44.25l1.69-40.57Z"/><path class="cls-14" d="M362.3,190.07s8,.69,8.25,7,.34,29.07.34,29.93-3.05,4.71-12.39,4.21c-8.89-.47-10.1-3-10.1-4.54,0-3.22.94-27.62,2.14-33C351.3,190.4,358.52,189,362.3,190.07Z"/><path class="cls-5" d="M356.48,185.87s0,6.92.78,7.47,5-.18,5-2.56-.05-5.52-.05-5.52Z"/><path class="cls-14" d="M355.22,190.61s-5.23-.35-6.59,3.14-3.58,9.55-1.9,10.1a14.26,14.26,0,0,0,3.9,1C351.34,204.77,355.54,194.65,355.22,190.61Z"/><path class="cls-1" d="M352.06,175.77s-.63,13.9,3.86,14.57c3.38.5,8-1,8.13-5.62s1.61-11.33-1.58-11.34S351.69,172.68,352.06,175.77Z"/><path class="cls-15" d="M366.28,175s.26,4.65.18,6.72-2.46,4.28-3.28,3.46-.46-8.43-.46-8.43Z"/><path class="cls-15" d="M358,170.72s-4.7,0-6.38,2.9c-1.55,2.67-.77,5.71.4,5.51a7.73,7.73,0,0,0,2-.7,26.75,26.75,0,0,0,2.5-1.56s-.25.81-.56,2.06a7.29,7.29,0,0,0,4.06-2.87c.13-.28,1.13,7.51,2.91,5.83s4.74-4.53,2.78-8.77S358,170.72,358,170.72Z"/><path class="cls-1" d="M362.54,182.42s.95-2.42,2.39-1.39.28,5-1.5,4.35S362.54,182.42,362.54,182.42Z"/><path class="cls-7" d="M372.47,201.87s.29,6.52,0,11.95c-.14,3.13-.46,6.76-.56,7.56-.25,2-.81,6.13-.81,6.13a26,26,0,0,0,.25,2.81c.5,2.22.92,6.35-2.73,7-3.1.58-2.2-4.35-1.08-8.17.19-.63-.25-4.39-.31-7.42-.08-3.55.23-4.38.13-8.31A73.89,73.89,0,0,0,366,202.5Z"/><path class="cls-14" d="M371,193.64c-1.26-1.57-5.44-2.37-6.65.67s0,13.2,1.26,13.73a10.54,10.54,0,0,0,4.41.4,3.78,3.78,0,0,0,2.94-2C373.59,205.38,373.13,196.31,371,193.64Z"/><path class="cls-12" d="M389.7,288.43s-1.66,1.63-2.61,2.38-2.07,1.68-1.7,2.47,1.47,1.56,4.25,0,3.62-2.55,3.66-3.43a4.13,4.13,0,0,0-.37-1.79Z"/><path class="cls-7" d="M387.3,251.8s0,7.5.63,14.75,1.63,22.63,1.63,22.63.17,1,1.92.54,1.5-2.17,1.5-2.92.73-11.29.42-12.92c-.42-2.17-1-3.92-.58-5.25s.92-16.08.92-16.08Z"/><path class="cls-12" d="M397.29,290.34s-1.66,1.63-2.61,2.38-2.07,1.68-1.7,2.47,1.47,1.56,4.25,0,3.61-2.55,3.66-3.43a4.15,4.15,0,0,0-.37-1.79Z"/><path class="cls-7" d="M394.88,253.72s0,7.5.63,14.75,1.63,22.63,1.63,22.63.17,1,1.92.54,1.5-2.17,1.5-2.92.73-11.29.42-12.92c-.42-2.17-1-3.92-.58-5.25s.92-16.08.92-16.08Z"/><path class="cls-7" d="M383.27,228.13s.23,2.86.39,4.49-.46,5.8-.62,9.06-.08,6.19,0,7.51-1.81,4.36-.15,6.19c2.17,2.4,4.18.54,3.71-2.63s.39-5.11.54-7-.08-18-.08-18Z"/><path class="cls-16" d="M389.9,217.68a6.7,6.7,0,0,0-5.3,3.06c-2.07,2.94-2.32,9-1.68,9.84s3.23,1.11,3.92,1S390.21,221.55,389.9,217.68Z"/><path class="cls-16" d="M392.85,217.11c-2.52,0-5.24.32-6,2.64s-2.08,7.6-1.12,9.12,1.52,9.12,1.36,11.52-3.28,16.72-3.36,21.12,0,5.28,0,5.28,1.93,2.63,8.56,3c9.12.56,12.88-3.24,13.68-5.08s-1.68-15.48-2.64-19.32-.92-11-1.08-14.16,1.32-8.88-1.56-11.4C397.09,216.76,395.37,217.11,392.85,217.11Z"/><path class="cls-17" d="M386,202.64s.06,5.52-.06,9.92c-.11,4.1-.8,6,.64,6.08a5.74,5.74,0,0,0,5.18-4.66c.72-3.36-1.34-12.06-1.34-12.06Z"/><path class="cls-5" d="M390.66,211.9s.49,6.64,1.23,7.17,4.32-.18,4.32-2.46-.3-5.28-.3-5.28Z"/><path class="cls-1" d="M386.41,202.21s-.61,13.34,3.71,14a7,7,0,0,0,7.59-6.6c.14-4.4,1.75-9.68-1.31-9.69S386.05,199.25,386.41,202.21Z"/><path class="cls-17" d="M400.06,201.44c1.91,3.19,1.11,12.16,1,14.15s-4.34,5.34-5.12,4.56.66-17,.66-17S398.14,198.25,400.06,201.44Z"/><path class="cls-17" d="M392.11,197.37s-4.51,0-6.12,2.79c-1.49,2.57-.74,5.48.38,5.29a7.38,7.38,0,0,0,1.9-.67,25.78,25.78,0,0,0,2.4-1.5s-.24.78-.54,2a7,7,0,0,0,3.9-2.76c.13-.27,1.08,7.21,2.79,5.6s4.55-4.35,2.66-8.41S392.11,197.37,392.11,197.37Z"/><path class="cls-7" d="M405,229.17s.24,5.47,0,10c-.12,2.63-.39,5.67-.47,6.34-.21,1.68-.68,5.14-.68,5.14a21.93,21.93,0,0,0,.21,2.36c.42,1.87.77,5.32-2.29,5.89-2.6.49-1.84-3.65-.91-6.85.16-.53-.21-3.68-.26-6.22-.07-3,.2-3.68.11-7a62.08,62.08,0,0,0-1.15-9.17Z"/><path class="cls-16" d="M402.93,219.59a3,3,0,0,0-5.28,1c-1.16,2.92.53,12.13,1.76,12.64a6.62,6.62,0,0,0,3.36.16,3.86,3.86,0,0,0,2.8-2.32C406.18,230,405,222.15,402.93,219.59Z"/><path class="cls-18" d="M269.86,345.27s1.66,1.63,2.61,2.38,2.07,1.68,1.7,2.47-1.47,1.56-4.25,0-3.62-2.55-3.66-3.43a4.13,4.13,0,0,1,.38-1.79Z"/><path class="cls-7" d="M272.26,308.65s0,7.5-.62,14.75S270,346,270,346s-.17,1-1.92.54-1.5-2.17-1.5-2.92-.73-11.29-.42-12.92c.42-2.17,1-3.92.58-5.25s-.92-16.08-.92-16.08Z"/><path class="cls-19" d="M266.46,341.12c.08,1.34.13,2.32.13,2.53,0,.75-.25,2.42,1.5,2.92S270,346,270,346s.13-2,.32-4.79A4.87,4.87,0,0,1,266.46,341.12Z"/><path class="cls-18" d="M262.27,347.19s1.66,1.63,2.61,2.38,2.07,1.68,1.7,2.47-1.47,1.56-4.25,0-3.61-2.55-3.66-3.43a4.15,4.15,0,0,1,.37-1.79Z"/><path class="cls-7" d="M264.68,310.57s0,7.5-.62,14.75-1.62,22.63-1.62,22.63-.17,1-1.92.54-1.5-2.17-1.5-2.92-.73-11.29-.42-12.92c.42-2.17,1-3.92.58-5.25s-.92-16.08-.92-16.08Z"/><path class="cls-19" d="M258.88,343c.08,1.35.13,2.34.13,2.55,0,.75-.25,2.42,1.5,2.92s1.92-.54,1.92-.54.13-1.93.32-4.74A4.86,4.86,0,0,1,258.88,343Z"/><path class="cls-7" d="M276.29,285s-.23,2.86-.39,4.49.46,5.8.62,9.06.08,6.19,0,7.51,1.81,4.36.15,6.19c-2.17,2.4-4.18.54-3.71-2.63s-.39-5.11-.54-7,.08-18,.08-18Z"/><path class="cls-20" d="M269.66,274.53a6.7,6.7,0,0,1,5.3,3.06c2.07,2.94,2.32,9,1.68,9.84s-3.23,1.11-3.92,1S269.35,278.4,269.66,274.53Z"/><path class="cls-20" d="M266.71,274c2.52,0,5.24.32,6,2.64s2.08,7.6,1.12,9.12-1.52,9.12-1.36,11.52,3.28,16.72,3.36,21.12,0,5.28,0,5.28-1.93,2.63-8.56,3c-9.12.56-12.88-3.24-13.68-5.08s1.68-15.48,2.64-19.32.92-11,1.08-14.16-1.32-8.88,1.56-11.4C262.47,273.61,264.19,274,266.71,274Z"/><path class="cls-21" d="M273.61,259.48a33,33,0,0,1,.63,5.95c0,1.36-.61,2.63-.58,4s.89,3.06,1,3.9c.15,2-.41,3.32-1.42,3.38-.71,0-2-2-3.5-2.29s-3.59,0-4-1.67c-.72-3.36,3.45-14,3.45-14Z"/><path class="cls-5" d="M268.9,268.75s-.49,6.64-1.23,7.17-4.32-.18-4.32-2.46.3-5.28.3-5.28Z"/><path class="cls-1" d="M273.15,259.06s.61,13.34-3.71,14a7,7,0,0,1-7.59-6.6c-.14-4.4-1.75-9.68,1.31-9.69S273.51,256.09,273.15,259.06Z"/><path class="cls-21" d="M260,257a21,21,0,0,0-1.6,5.33c-.21,1.37-.73,3-.82,4.5s.24,2.94.22,4.25c0,1.76-.91,3.83-.89,4.42,0,1.08,1.37-.44,2.83-.08.54.13,2.42,2.63,2.33,5.83,0,1,2.71.41,2.92.21.48-.48-1.29-10.92-1-14s.25-7.5.25-7.5S261.86,253.82,260,257Z"/><path class="cls-21" d="M267.44,254.21s4.51,0,6.12,2.79c1.49,2.57.74,5.48-.38,5.29-.21,0-.78-.7-.78-.7a3.35,3.35,0,0,1-1.54.13,6.52,6.52,0,0,1-1.75-1.67s-.23,1.3-1.12,1.58-2.29-1.79-2.29-1.79a17.14,17.14,0,0,1-.54,3.08c-.47,1.69-1.55,2.84-2.43,2-1.71-1.61-4.55-4.35-2.66-8.41S267.44,254.21,267.44,254.21Z"/><path class="cls-7" d="M254.55,286s-.24,5.47,0,10c.12,2.63.39,5.67.47,6.34.21,1.68.68,5.14.68,5.14a21.93,21.93,0,0,1-.21,2.36c-.42,1.87-.77,5.32,2.29,5.89,2.6.49,1.84-3.65.91-6.85-.16-.53.21-3.68.26-6.22.07-3-.2-3.68-.11-7a62.07,62.07,0,0,1,1.15-9.17Z"/><path class="cls-20" d="M256.63,276.44a3,3,0,0,1,5.28,1c1.16,2.92-.53,12.13-1.76,12.64a6.62,6.62,0,0,1-3.36.16,3.86,3.86,0,0,1-2.8-2.32C253.38,286.89,254.58,279,256.63,276.44Z"/><path class="cls-22" d="M664.6,191.16s-1.66,1.63-2.61,2.38-2.07,1.68-1.7,2.47,1.47,1.56,4.25,0,3.62-2.55,3.66-3.43a4.13,4.13,0,0,0-.37-1.79Z"/><path class="cls-7" d="M662.2,154.54s0,7.5.63,14.75,1.63,22.63,1.63,22.63.17,1,1.92.54,1.5-2.17,1.5-2.92.73-11.29.42-12.92c-.42-2.17-1-3.92-.58-5.25s.92-16.08.92-16.08Z"/><path class="cls-23" d="M668,187c-.08,1.34-.13,2.32-.13,2.53,0,.75.25,2.42-1.5,2.92s-1.92-.54-1.92-.54-.13-2-.32-4.79A4.87,4.87,0,0,0,668,187Z"/><path class="cls-22" d="M672.19,193.08s-1.66,1.63-2.61,2.38-2.07,1.68-1.7,2.47,1.47,1.56,4.25,0,3.61-2.55,3.66-3.43a4.15,4.15,0,0,0-.37-1.79Z"/><path class="cls-7" d="M669.78,156.45s0,7.5.63,14.75S672,193.83,672,193.83s.17,1,1.92.54,1.5-2.17,1.5-2.92.73-11.29.42-12.92c-.42-2.17-1-3.92-.58-5.25s.92-16.08.92-16.08Z"/><path class="cls-23" d="M675.58,188.91c-.08,1.35-.13,2.34-.13,2.55,0,.75.25,2.42-1.5,2.92s-1.92-.54-1.92-.54-.13-1.93-.32-4.74A4.86,4.86,0,0,0,675.58,188.91Z"/><path class="cls-7" d="M658.17,130.86s.23,2.86.39,4.49-.46,5.8-.62,9.06-.08,6.19,0,7.51-1.81,4.36-.15,6.19c2.17,2.4,4.18.54,3.71-2.63s.39-5.11.54-7-.08-18-.08-18Z"/><path class="cls-24" d="M664.8,120.41a6.7,6.7,0,0,0-5.3,3.06c-2.07,2.94-2.32,9-1.68,9.84s3.23,1.11,3.92,1S665.11,124.29,664.8,120.41Z"/><path class="cls-24" d="M667.75,119.85c-2.52,0-5,1.24-5.77,3.56s-2.35,6.68-1.39,8.2,1.52,9.12,1.36,11.52-3.28,16.72-3.36,21.12,0,5.28,0,5.28,1.93,2.63,8.56,3c9.12.56,12.88-3.24,13.68-5.08s-1.68-15.48-2.64-19.32-.92-11-1.08-14.16,1.94-9.52-.94-12C672.62,118.86,670.27,119.85,667.75,119.85Z"/><path class="cls-25" d="M665.27,104.65l-4.42.72a33,33,0,0,0-.63,5.95c0,1.36.61,2.63.58,4,0,1.66-1.48,3.26-.08,4.71.58.6,1.35.22,2.05.06,1-.22,1.68-1,2.65-1a4.79,4.79,0,0,0,3.34-.74C669.24,114.74,665.27,104.65,665.27,104.65Z"/><path class="cls-5" d="M665.56,114.64s.49,6.64,1.23,7.17,4.32-.18,4.32-2.46-.3-5.28-.3-5.28Z"/><path class="cls-1" d="M661.31,104.95s-.61,13.34,3.71,14a7,7,0,0,0,7.59-6.6c.14-4.4,1.75-9.68-1.31-9.69S661,102,661.31,104.95Z"/><path class="cls-25" d="M667,100.1s-4.51,0-6.12,2.79c-1.49,2.57-.74,5.48.38,5.29.21,0,.78-.7.78-.7a3.35,3.35,0,0,0,1.54.13,6.52,6.52,0,0,0,1.75-1.67s.23,1.3,1.13,1.58,2.29-1.79,2.29-1.79a17.14,17.14,0,0,0,.54,3.08c.47,1.69,1.55,2.84,2.43,2,1.71-1.61,4.55-4.35,2.66-8.41S667,100.1,667,100.1Z"/><path class="cls-25" d="M674,119.16a4.38,4.38,0,0,0,2,0c1.22-.33.71-1.1.7-2.13,0-1.31.32-2.73.22-4.25s-.61-3.13-.82-4.5a21,21,0,0,0-1.6-5.33c-1.91-3.19-4.25,3-4.25,3s0,4.46.25,7.5a12.59,12.59,0,0,1-.34,3.44c-.09.72-.55,2.44.38,2.72S672.94,118.91,674,119.16Z"/><path class="cls-7" d="M679.91,131.91s.24,5.47,0,10c-.12,2.63-.39,5.67-.47,6.34-.21,1.68-.68,5.14-.68,5.14a22,22,0,0,0,.21,2.36c.42,1.87.77,5.32-2.29,5.89-2.6.49-1.84-3.65-.91-6.85.16-.53-.21-3.68-.26-6.22-.07-3,.2-3.68.11-7a62.07,62.07,0,0,0-1.15-9.17Z"/><path class="cls-24" d="M677.83,122.33a3,3,0,0,0-5.28,1c-1.16,2.92.53,12.13,1.76,12.64a6.63,6.63,0,0,0,3.36.16,3.86,3.86,0,0,0,2.8-2.32C681.08,132.78,679.88,124.88,677.83,122.33Z"/><path class="cls-7" d="M232.8,263.59s-.12,8.44-.56,10.06a18.63,18.63,0,0,1-2.06,4.06l-.19-13.5Z"/><path class="cls-18" d="M226.51,321.6a17.87,17.87,0,0,1,3.4,1.13c.67.36.44,1.3.37,1.89-.1.87-1.07,2.1-4,.78s-4.18-1.79-4.3-2.66.18-2,1-2.16C224.06,320.39,226.51,321.6,226.51,321.6Z"/><path class="cls-7" d="M223.3,286.94s.33,7.49,1.27,14.71,2.51,21.79,2.51,21.79.48,1.24,2.13.48c1.11-.51.68-1.71.79-2.45.21-1.44.72-11.12.34-12.74-.51-2.15-1.17-3.87-.81-5.22s.21-16.11.21-16.11Z"/><path class="cls-18" d="M219.76,324.44a17.87,17.87,0,0,1,3.4,1.13c.67.36.44,1.3.37,1.89-.1.87-1.07,2.1-4,.78s-4.18-1.79-4.3-2.66.18-2,1-2.16C217.31,323.23,219.76,324.44,219.76,324.44Z"/><path class="cls-7" d="M216.55,289.77s.33,7.49,1.27,14.71,2.51,21.79,2.51,21.79.48,1.24,2.13.48c1.11-.51.68-1.71.79-2.45.21-1.44.72-11.12.34-12.74-.51-2.15-1.17-3.87-.81-5.22s.21-16.11.21-16.11Z"/><path class="cls-26" d="M225.19,250.67c2.52,0,6.15,1.82,7,4.13s-.94,16.64-.74,19S234.78,289.6,235,294s.1,5.28.1,5.28-1.61,3.54-8.23,4.08c-9.11.74-12.82-2.48-13.65-4.31s1.26-16,2.14-19.87,1.63-11.09.8-14.18-1.49-8.85,1.34-11.43C220.94,250.4,222.67,250.72,225.19,250.67Z"/><path class="cls-7" d="M221.65,265.22s-.85,5.41-2,9.82c-.64,2.55-1.51,5.48-1.72,6.12-.54,1.6-1.69,4.9-1.69,4.9a21.85,21.85,0,0,0-.26,2.35c0,1.91-.3,5.37-3.41,5.32-2.64,0-1.08-3.94.47-6.89.26-.49.53-3.65,1-6.15.53-2.93.92-3.56,1.49-6.81a62,62,0,0,0,.7-9.22Z"/><path class="cls-27" d="M221.51,255.42a3,3,0,0,0-5.37-.11c-1.72,2.63-1.89,12-.79,12.74a6.62,6.62,0,0,0,3.26.83,4.24,4.24,0,0,0,3.41-1.4C222.83,266.62,223,258.33,221.51,255.42Z"/><path class="cls-27" d="M228.45,251.84s4,.75,4.5,3.42a38,38,0,0,1,.17,8.58c-.12.5-1,.92-1.87,1S228.45,251.84,228.45,251.84Z"/><path class="cls-1" d="M216.7,240.34s-.76,7.83,2.17,8.5a7.39,7.39,0,0,0,6.17-1.33s1.67-9.33-1.83-10.33S217.2,237.68,216.7,240.34Z"/><path class="cls-28" d="M218,234.51a7,7,0,0,0-2,4.83c0,3,1.5,3.67,3,3.5s.83,2.5.83,3.5c0,.63-1.54,1.83-2.44,4.19a11.34,11.34,0,0,0-.73,3.23c-.11,1.74.77-.71,2.6.46s2.23,7.71,2.73,9.38.17,2.83,3,2,2.33-.33,3.5-.17,3.67,1,3.5-1.67-.5-11-.5-13.33,3.83-13.92-1.5-16.58C225.4,231.53,219.7,231.34,218,234.51Z"/><path class="cls-7" d="M511.93,52.57s.13,8.44.56,10.06a18.63,18.63,0,0,0,2.06,4.06l.19-13.5Z"/><path class="cls-29" d="M516.29,40.82s-4,.75-4.5,3.42a38.07,38.07,0,0,0-.17,8.58c.13.5,1,.92,1.88,1S516.29,40.82,516.29,40.82Z"/><path class="cls-30" d="M518.23,110.58a17.86,17.86,0,0,0-3.4,1.13c-.67.36-.44,1.3-.37,1.89.1.87,1.07,2.1,4,.78s4.18-1.79,4.3-2.66-.18-2-1-2.16C520.68,109.37,518.23,110.58,518.23,110.58Z"/><path class="cls-7" d="M521.44,75.91s-.33,7.49-1.27,14.71-2.51,21.79-2.51,21.79-.48,1.24-2.13.48c-1.11-.51-.68-1.71-.79-2.45-.21-1.44-.72-11.12-.34-12.74.51-2.15,1.17-3.87.81-5.22S515,76.38,515,76.38Z"/><path class="cls-30" d="M525,113.41a17.86,17.86,0,0,0-3.4,1.13c-.67.36-.44,1.3-.37,1.89.1.87,1.07,2.1,4,.78s4.18-1.79,4.3-2.66-.18-2-1-2.16C527.43,112.2,525,113.41,525,113.41Z"/><path class="cls-7" d="M528.19,78.74s-.33,7.49-1.27,14.71-2.51,21.79-2.51,21.79-.48,1.24-2.13.48c-1.11-.51-.68-1.71-.79-2.45-.21-1.44-.72-11.12-.34-12.74.51-2.15,1.17-3.87.81-5.22s-.21-16.11-.21-16.11Z"/><path class="cls-31" d="M519.55,39.64c-2.52,0-6.15,1.82-7,4.13s.94,16.64.74,19S510,78.58,509.79,83s-.1,5.28-.1,5.28,1.61,3.54,8.23,4.08c9.11.74,12.82-2.48,13.65-4.31s-1.26-16-2.14-19.87-1.63-11.09-.8-14.18,1.49-8.85-1.33-11.43C523.8,39.38,522.07,39.69,519.55,39.64Z"/><path class="cls-7" d="M523.09,54.19s.85,5.41,2,9.82c.64,2.55,1.51,5.48,1.72,6.12.54,1.6,1.69,4.9,1.69,4.9a21.92,21.92,0,0,1,.26,2.35c0,1.91.3,5.37,3.41,5.32,2.64,0,1.08-3.94-.47-6.89-.26-.49-.53-3.65-1-6.15-.53-2.93-.92-3.56-1.49-6.81a62,62,0,0,1-.7-9.22Z"/><path class="cls-29" d="M523.23,44.39a3,3,0,0,1,5.37-.11c1.72,2.63,1.89,12,.79,12.74a6.63,6.63,0,0,1-3.26.83,4.23,4.23,0,0,1-3.41-1.4C521.91,55.6,521.72,47.3,523.23,44.39Z"/><path class="cls-1" d="M528,29.32s.76,7.84-2.17,8.5a7.39,7.39,0,0,1-6.17-1.33s-1.67-9.33,1.83-10.33S527.54,26.65,528,29.32Z"/><path class="cls-32" d="M526.7,23.48a7,7,0,0,1,2,4.83c0,3-1.5,3.67-3,3.5s-.83,2.5-.83,3.5c0,.63,1.54,1.83,2.44,4.19a11.32,11.32,0,0,1,.73,3.23c.12,1.74-.77-.71-2.6.46s-2.48,3.32-5.32,2.49-2.33-.33-3.5-.17-3.67,1-3.5-1.67a40.65,40.65,0,0,0,.09-4.44c0-2.33-3.83-13.92,1.5-16.58C519.33,20.5,525,20.32,526.7,23.48Z"/><path class="cls-7" d="M407.05,324.61s.23,6.52.9,11.91c.39,3.11,1,6.71,1.16,7.49.41,2,1.29,6,1.29,6a25.36,25.36,0,0,1,0,2.82c-.32,2.26-1.12,6,2.57,6.41,3.13.33,2.55-4.13,1.14-7.85-.23-.61-.1-4.4-.28-7.42-.2-3.54-.58-4.35-.78-8.28-.26-4.93-.44-11.61-.44-11.61Z"/><path class="cls-33" d="M418.22,382.83c-.78.58-6.09,1.9-5.56,4.87s10.93-.36,10.7-3.71C423.18,381.51,419,382.25,418.22,382.83Z"/><path class="cls-34" d="M409.79,350.06s2.35,35.44,3.39,36.9,3.41,1.11,4.44.25,2-36.88,2-36.88Z"/><path class="cls-34" d="M419.66,350.32s2.87,39.46,4.48,40.6a3.94,3.94,0,0,0,4.44.25c1.19-.7,1.69-40.57,1.69-40.57Z"/><path class="cls-35" d="M423.31,314s6,1,7.75,6.83c1.82,6.05.34,29.07.34,29.93S428.35,355.49,419,355c-8.89-.47-10.1-3-10.1-4.54,0-1.25,1.21-5.06.56-10.27-1-8-1.87-18.49-.83-21.67C410.34,313.31,419.53,312.9,423.31,314Z"/><path class="cls-5" d="M422.78,309.65s.45,4.67-.39,5.11c-2.5,1.33-5.39-.2-5.39-.2l-.44-5.71Z"/><path class="cls-35" d="M415.31,314.81s-5.23-.35-6.59,3.14-3.58,9.55-1.9,10.1a14.28,14.28,0,0,0,3.9,1C411.43,329,415.63,318.84,415.31,314.81Z"/><path class="cls-1" d="M425.59,299.06s3.57,12.61-.86,13.62c-3.33.76-9.17-.69-9.67-5.25s-3.21-9.71,0-10S425.72,296,425.59,299.06Z"/><path class="cls-7" d="M425.61,326.38s.44,6.51,1.29,11.88c.49,3.1,1.21,6.67,1.4,7.45.47,2,1.49,6,1.49,6a25.57,25.57,0,0,1,.06,2.82c-.25,2.27-.92,6,2.78,6.32,3.14.23,2.42-4.21.89-7.88-.25-.6-.24-4.39-.52-7.41-.32-3.54-.72-4.33-1.05-8.25-.42-4.92-.82-11.59-.82-11.59Z"/><path class="cls-35" d="M430.17,318.34c-1.26-1.57-5.44-2.37-6.65.67s0,13.2,1.26,13.73a10.53,10.53,0,0,0,4.41.4,3.78,3.78,0,0,0,2.94-2C432.77,330.08,432.31,321,430.17,318.34Z"/><path class="cls-36" d="M426.81,300.59a12.78,12.78,0,0,1-2.17,2.5c-1,.75-.33,2.92-.42,3.58s-3.08.83-3.08,2.25,2,3.92-2.17,4.25c-1.79.14-5.34-.86-5.67-3.08s-2.23-4-2.42-6.75c-.42-6.17,3.42-8.92,7-9.17S428.64,295.84,426.81,300.59Z"/><path class="cls-1" d="M423.14,306.33s-1.13-2.34-2.49-1.2.11,5.05,1.83,4.23S423.14,306.33,423.14,306.33Z"/><path class="cls-7" d="M27.79,208.13s-.23,6.52-.9,11.91c-.39,3.11-1,6.7-1.16,7.49-.41,2-1.29,6-1.29,6a25.33,25.33,0,0,0,0,2.82c.32,2.26,1.12,6-2.57,6.41-3.13.33-2.55-4.13-1.14-7.85.23-.61.1-4.4.28-7.42.2-3.54.58-4.35.78-8.28.26-4.93.44-11.61.44-11.61Z"/><path class="cls-37" d="M19.53,198.33s4.73.26,6.73,2.35S29.69,211,28,211.57a14.28,14.28,0,0,1-3.9,1C23.4,212.49,19.21,202.37,19.53,198.33Z"/><path class="cls-38" d="M5.83,270.65c.78.58,6.09,1.9,5.56,4.87S.46,275.16.7,271.8C.87,269.33,5,270.07,5.83,270.65Z"/><path class="cls-38" d="M16.61,266.35c.78.58,6.09,1.9,5.56,4.87s-10.93-.36-10.7-3.71C11.66,265,15.83,265.78,16.61,266.35Z"/><path class="cls-39" d="M25,233.58s-2.35,35.44-3.39,36.9-3.41,1.11-4.44.25-2-36.88-2-36.88Z"/><path class="cls-39" d="M15.17,233.84s-2.87,39.46-4.48,40.6a3.94,3.94,0,0,1-4.44.25c-1.19-.7-1.69-40.57-1.69-40.57Z"/><path class="cls-40" d="M11.53,197.53s-6,1-7.75,6.83c-1.82,6.05-.34,29.07-.34,29.93s3.05,4.71,12.39,4.21c8.89-.47,10.1-3,10.1-4.54,0-1.25-1.21-5.06-.56-10.27,1-8,1.43-18.26.39-21.44C24.06,197.06,15.31,196.42,11.53,197.53Z"/><path class="cls-5" d="M12.06,193.17s-.45,4.67.39,5.11c2.5,1.33,5.39-.2,5.39-.2l.44-5.71Z"/><path class="cls-1" d="M9.25,182.58s-3.57,12.61.86,13.62c3.33.76,9.17-.69,9.67-5.25s3.21-9.71,0-10S9.12,179.47,9.25,182.58Z"/><path class="cls-7" d="M9.22,209.9s-.44,6.51-1.29,11.88c-.49,3.1-1.21,6.67-1.4,7.45-.47,2-1.49,6-1.49,6A25.56,25.56,0,0,0,5,238c.25,2.27.92,6-2.78,6.32-3.14.23-2.42-4.21-.89-7.88.25-.6.24-4.39.52-7.41.32-3.54.72-4.33,1.05-8.25.42-4.92.82-11.59.82-11.59Z"/><path class="cls-37" d="M4.66,201.86c1.26-1.57,5.44-2.37,6.65.67s0,13.2-1.26,13.73a10.53,10.53,0,0,1-4.41.4,3.78,3.78,0,0,1-2.94-2C2.07,213.6,2.53,204.52,4.66,201.86Z"/><path class="cls-41" d="M8,184.12a12.78,12.78,0,0,0,2.17,2.5c1,.75.33,2.92.42,3.58s3.08.83,3.08,2.25-.94,2.4,3.23,2.73c1.79.14,4.67-3,5.25-3.83a12.42,12.42,0,0,0,1.75-5.08c.42-6.17-3.4-8.31-7-8.56S6.19,179.37,8,184.12Z"/><path class="cls-1" d="M11.69,189.85s1.13-2.34,2.49-1.2-.11,5.05-1.83,4.23S11.69,189.85,11.69,189.85Z"/><path class="cls-7" d="M260.31,130.31s.23,6.52.9,11.91c.39,3.11,1,6.71,1.16,7.49.41,2,1.29,6,1.29,6a25.36,25.36,0,0,1,0,2.82c-.32,2.26-1.12,6,2.57,6.41,3.13.33,2.55-4.13,1.14-7.85-.23-.61-.1-4.4-.28-7.42-.2-3.54-.58-4.35-.78-8.28-.26-4.93-.44-11.61-.44-11.61Z"/><path class="cls-33" d="M282.27,192.83c-.78.58-6.09,1.9-5.56,4.87s10.93-.35,10.69-3.71C287.22,191.51,283.05,192.25,282.27,192.83Z"/><path class="cls-33" d="M271.48,188.54c-.78.58-6.09,1.9-5.56,4.87s10.93-.36,10.7-3.71C276.44,187.22,272.27,188,271.48,188.54Z"/><path class="cls-34" d="M263.06,155.77s2.35,35.44,3.39,36.9,3.41,1.11,4.44.25,2-36.88,2-36.88Z"/><path class="cls-34" d="M272.93,156s2.87,39.46,4.48,40.6a3.94,3.94,0,0,0,4.44.25c1.19-.7,1.69-40.57,1.69-40.57Z"/><path class="cls-42" d="M276.57,119.72s6,1,7.75,6.83c1.82,6.05.34,29.07.34,29.93s-3.05,4.71-12.39,4.21c-8.89-.47-10.1-3-10.1-4.54,0-1.25,1.21-5.06.56-10.27-1-8-1.87-18.49-.83-21.67C263.6,119,272.79,118.6,276.57,119.72Z"/><path class="cls-5" d="M276,115.35s.45,4.67-.39,5.11c-2.5,1.33-5.39-.2-5.39-.2l-.44-5.71Z"/><path class="cls-42" d="M268.57,120.51s-5.23-.35-6.59,3.14-3.58,9.55-1.9,10.1a14.27,14.27,0,0,0,3.9,1C264.69,134.67,268.89,124.55,268.57,120.51Z"/><path class="cls-1" d="M278.85,104.77s3.57,12.61-.86,13.62c-3.33.76-9.17-.69-9.67-5.25s-3.21-9.71,0-10S279,101.66,278.85,104.77Z"/><path class="cls-7" d="M278.88,132.08s.44,6.51,1.29,11.88c.49,3.1,1.21,6.67,1.4,7.45.47,2,1.49,6,1.49,6a25.54,25.54,0,0,1,.06,2.82c-.25,2.27-.92,6,2.78,6.32,3.14.23,2.42-4.21.89-7.88-.25-.6-.24-4.39-.52-7.41-.32-3.54-.72-4.33-1.05-8.25-.42-4.92-.82-11.59-.82-11.59Z"/><path class="cls-42" d="M283.43,124c-1.26-1.57-5.44-2.37-6.65.67s0,13.2,1.26,13.73a10.53,10.53,0,0,0,4.41.4,3.78,3.78,0,0,0,2.94-2C286,135.78,285.57,126.71,283.43,124Z"/><path class="cls-43" d="M280.07,106.3a12.78,12.78,0,0,1-2.17,2.5c-1,.75-.33,2.92-.42,3.58s-3.08.83-3.08,2.25,2,3.92-2.17,4.25c-1.79.14-5.34-.86-5.67-3.08s-2.23-4-2.42-6.75c-.42-6.17,3.42-8.92,7-9.17S281.9,101.55,280.07,106.3Z"/><path class="cls-1" d="M276.4,112s-1.13-2.34-2.49-1.2.11,5.05,1.83,4.23S276.4,112,276.4,112Z"/><path class="cls-44" d="M427.37,158.18s-1.66,1.63-2.61,2.38-2.07,1.68-1.7,2.47,1.47,1.56,4.25,0,3.62-2.55,3.66-3.43a4.13,4.13,0,0,0-.37-1.79Z"/><path class="cls-7" d="M425,121.55s0,7.5.63,14.75,1.63,22.62,1.63,22.62.17,1,1.92.54,1.5-2.17,1.5-2.92.73-11.29.42-12.92c-.42-2.17-1-3.92-.58-5.25s.92-16.08.92-16.08Z"/><path class="cls-44" d="M435,160.1s-1.66,1.63-2.61,2.38-2.07,1.68-1.7,2.47,1.47,1.56,4.25,0,3.61-2.55,3.66-3.43a4.15,4.15,0,0,0-.37-1.79Z"/><path class="cls-7" d="M432.55,123.47s0,7.5.63,14.75,1.63,22.62,1.63,22.62.17,1,1.92.54,1.5-2.17,1.5-2.92.73-11.29.42-12.92c-.42-2.17-1-3.92-.58-5.25s.92-16.08.92-16.08Z"/><path class="cls-45" d="M427.56,87.43a6.7,6.7,0,0,0-5.3,3.06c-2.07,2.94-2.32,9-1.68,9.84s3.23,1.11,3.92,1S427.87,91.3,427.56,87.43Z"/><path class="cls-45" d="M430.52,86.86c-2.52,0-5.24.32-6,2.64s-2.08,7.6-1.12,9.12,1.52,9.12,1.36,11.52-3.28,16.72-3.36,21.12,0,5.28,0,5.28,1.93,2.63,8.56,3c9.12.56,12.88-3.24,13.68-5.08S441.91,119,441,115.18s-.92-11-1.08-14.16,1.32-8.88-1.56-11.4C434.76,86.51,433,86.86,430.52,86.86Z"/><path class="cls-46" d="M423.62,72.39s.06,3.44-.06,7.84c-.11,4.1-.8,6,.64,6.08s4.46.77,5.18-2.59c1.34-6.26-2-14.69-1.34-12.06Z"/><path class="cls-5" d="M428.32,81.65s.49,6.64,1.23,7.17,4.32-.18,4.32-2.46-.3-5.28-.3-5.28Z"/><path class="cls-1" d="M424.07,72s-.61,13.34,3.71,14a7,7,0,0,0,7.59-6.6c.14-4.4,1.75-9.68-1.31-9.69S423.72,69,424.07,72Z"/><path class="cls-46" d="M437.72,71.19c1.91,3.19,1.11,10.09,1,12.08s-4.16,4.37-4.94,3.58.49-14,.49-14S435.81,68,437.72,71.19Z"/><path class="cls-46" d="M429.78,67.12s-4.51,0-6.12,2.79c-1.49,2.57-.75,5.13.38,5.29s8.63,1.8,10.34.19,4.66-1.9,2.78-6S429.78,67.12,429.78,67.12Z"/><polygon class="cls-47" points="431.38 103.92 411.57 92.44 411.57 113.25 431.38 124.7 431.38 103.92"/><path class="cls-7" d="M411.89,103s2.5.56,3.31,1.88-.81,3.25-1.87,3.31-2.62-.62-2.69-1.81S410.82,102.83,411.89,103Z"/><path class="cls-7" d="M443.68,102.19s1.2,7,.71,8-3.84,3.21-6.51,4.17-4.76,1.18-5.79,1.6-2.42,1.06-3.85.11-2.81-3.56-1.23-4.53a4,4,0,0,1,4.17.08,2.75,2.75,0,0,0,2.5.11c.81-.22,3-2.48,5.71-3.69l-1.31-4.62Z"/><path class="cls-45" d="M440.65,90.45a3,3,0,0,0-5.21,1.3c-1,3,1.32,12.07,2.58,12.5a6.62,6.62,0,0,0,3.36-.06,3.86,3.86,0,0,0,2.64-2.5C444.58,100.67,442.86,92.87,440.65,90.45Z"/><path class="cls-7" d="M484.52,252.38s-.83-6.47-1-11.9c-.12-3.14-.1-6.78-.07-7.58.08-2,.3-6.17.3-6.17a26,26,0,0,0-.48-2.78c-.68-2.17-1.44-6.25,2.13-7.23,3-.83,2.55,4.15,1.76,8-.13.64.61,4.36.93,7.37.37,3.53.13,4.39.57,8.29a73.9,73.9,0,0,0,2.27,10.79Z"/><path class="cls-48" d="M490.1,243.83s-1.49,2.2-3.56,2.35-2.85-1.92-3.41-1.05c-.41.64.06,12.46,2.56,13.59s5.18-1.89,5.18-1.89l1-3.87S490.48,244.35,490.1,243.83Z"/><path class="cls-49" d="M499.38,330.49c-.78.58-6.09,1.9-5.57,4.87s10.93-.35,10.7-3.71C504.33,329.17,500.16,329.91,499.38,330.49Z"/><path class="cls-49" d="M488.6,326.2c-.78.58-6.09,1.9-5.57,4.87s10.93-.36,10.7-3.71C493.55,324.88,489.38,325.62,488.6,326.2Z"/><path class="cls-50" d="M485.81,290.46s1.78,36.13,3.39,36.9,4.44.25,4.44.25l2-36.88Z"/><path class="cls-50" d="M495.68,290.72s2.87,39.46,4.48,40.6,4.44.25,4.44.25L506.28,291Z"/><path class="cls-48" d="M498.3,254s8.51.89,8.78,7.2.34,29.07.34,29.93-3.05,4.71-12.39,4.21c-8.89-.47-10.1-3-10.1-4.54,0-1.9.63-11.21.88-19.64.17-5.87-1.18-11.89-.68-14.08C485.88,253.81,494.52,252.92,498.3,254Z"/><path class="cls-5" d="M493,250s0,6.92.78,7.47,5-.18,5-2.56-.05-5.52-.05-5.52Z"/><path class="cls-1" d="M488.59,239.95s-.63,13.9,3.86,14.57c3.38.5,8-1,8.13-5.62s1.61-11.34-1.58-11.34S488.22,236.85,488.59,239.95Z"/><path class="cls-17" d="M502.81,239.14s.26,4.65.18,6.72-2.46,4.28-3.28,3.46-.46-8.43-.46-8.43Z"/><path class="cls-17" d="M494.53,234.9s-4.7,0-6.38,2.9c-1.55,2.67-.77,5.71.4,5.51a7.73,7.73,0,0,0,2-.7,26.73,26.73,0,0,0,2.5-1.56s-.25.81-.56,2.06a7.29,7.29,0,0,0,4.06-2.87c.13-.28,1.13,7.51,2.91,5.83s4.74-4.53,2.78-8.77S494.53,234.9,494.53,234.9Z"/><path class="cls-1" d="M499.07,246.59s.95-2.42,2.39-1.39.28,5-1.5,4.35S499.07,246.59,499.07,246.59Z"/><polygon class="cls-47" points="504.92 217.4 485.1 205.92 485.1 226.73 504.92 238.18 504.92 217.4"/><path class="cls-7" d="M482.89,221.21s1.95-3.59,3.89-3.18,1.42,4.75.51,5.75a10.57,10.57,0,0,1-3.57,2.25C483.24,226.11,482.39,222.14,482.89,221.21Z"/><path class="cls-48" d="M504.58,247.84c-1.46-.61-1.25-1.24-1.73-.5s-1,4.75-1.75,7.47-1.33,9,2.48,9,5-3.08,5.19-5.83,1.37-9.78.64-10.08S506,248.45,504.58,247.84Z"/><path class="cls-7" d="M503.37,232.52s.07,7.58.32,8.91-.9,6.27-.51,8.1,5.21,2.06,5.84.38,0-6.3-.29-9.21a58.32,58.32,0,0,0-1.93-9.83c-.39-1.12.35-6.43-3.61-7.18-2.13-.41-3.39.24-3,2.81A12.37,12.37,0,0,0,503.37,232.52Z"/><path class="cls-51" d="M141.35,166s1.66,1.63,2.62,2.38,2.07,1.68,1.7,2.47-1.47,1.56-4.25,0-3.62-2.55-3.66-3.43a4.13,4.13,0,0,1,.38-1.79Z"/><path class="cls-52" d="M143.76,129.36s0,7.5-.62,14.75-1.62,22.62-1.62,22.62-.17,1-1.92.54-1.5-2.17-1.5-2.92-.73-11.29-.42-12.92c.42-2.17,1-3.92.58-5.25s-.92-16.08-.92-16.08Z"/><path class="cls-51" d="M133.77,167.9s1.65,1.63,2.61,2.38,2.07,1.68,1.7,2.47-1.47,1.56-4.25,0-3.62-2.55-3.66-3.43a4.13,4.13,0,0,1,.38-1.79Z"/><path class="cls-52" d="M136.18,131.28s0,7.5-.62,14.75-1.62,22.62-1.62,22.62-.17,1-1.92.54-1.5-2.17-1.5-2.92-.73-11.29-.42-12.92c.42-2.17,1-3.92.58-5.25s-.92-16.08-.92-16.08Z"/><path class="cls-53" d="M141.16,95.24a6.7,6.7,0,0,1,5.3,3.06c2.07,2.94,2.32,9,1.68,9.84s-3.23,1.11-3.92,1S140.85,99.11,141.16,95.24Z"/><path class="cls-53" d="M138.2,94.67c2.52,0,5.24.32,6,2.64s2.08,7.6,1.12,9.12-1.52,9.12-1.36,11.52,1.54,10.33,1.62,14.73a24.74,24.74,0,0,1-.75,7.08s-.67,2.25-7.42,2.25c-9.13,0-9.53-2.58-10.33-4.42s-.31-10.77.65-14.61.92-11,1.08-14.16-1.32-8.88,1.56-11.4C134,94.32,135.68,94.67,138.2,94.67Z"/><path class="cls-5" d="M140.4,89.46s-.49,6.64-1.23,7.17-4.32-.18-4.32-2.46.3-5.28.3-5.28Z"/><path class="cls-1" d="M144.65,79.77s.61,13.34-3.71,14a7,7,0,0,1-7.59-6.6c-.14-4.4-1.75-9.68,1.31-9.69S145,76.8,144.65,79.77Z"/><path class="cls-54" d="M138.94,74.93s4.51,0,6.12,2.79c1.49,2.57.75,5.13-.38,5.29s-8.63,1.8-10.34.19-4.66-1.9-2.78-6S138.94,74.93,138.94,74.93Z"/><path class="cls-54" d="M134.49,75.59s-1.69-5.56-6-2.94c-4,2.44-1.74,5.74-.06,6.94a4.46,4.46,0,0,0,4.87.5C134,79.66,134.49,75.59,134.49,75.59Z"/><path class="cls-54" d="M131,79.84s-.69,5.19.94,7.19,3.37.31,3.31-.56,0-2.56-.19-4.31S131.24,78.72,131,79.84Z"/><path class="cls-1" d="M135.31,86.53s-2.24-2.69-2.75-.8,1,3.42,2,3.15S135.31,86.53,135.31,86.53Z"/><polygon class="cls-47" points="137.34 111.73 157.15 100.25 157.15 121.06 137.34 132.51 137.34 111.73"/><path class="cls-7" d="M156.84,110.82s-2.5.56-3.31,1.87.81,3.25,1.88,3.31,2.62-.62,2.69-1.81S157.9,110.64,156.84,110.82Z"/><path class="cls-7" d="M125,110s-1.2,7-.71,8,3.84,3.21,6.51,4.17,4.76,1.18,5.79,1.6,2.42,1.06,3.85.12,2.81-3.56,1.23-4.53a4,4,0,0,0-4.17.08,2.75,2.75,0,0,1-2.5.11c-.81-.22-3-2.48-5.71-3.69l1.31-4.62Z"/><path class="cls-53" d="M128.07,98.26a3,3,0,0,1,5.21,1.3c1,3-1.32,12.07-2.58,12.49a6.6,6.6,0,0,1-3.36-.06,3.86,3.86,0,0,1-2.64-2.5C124.14,108.48,125.86,100.68,128.07,98.26Z"/><path class="cls-7" d="M173.95,323.28s.83-6.47,1-11.9c.12-3.14.1-6.78.07-7.58-.08-2-.3-6.17-.3-6.17a26,26,0,0,1,.48-2.78c.68-2.17,1.44-6.25-2.13-7.23-3-.83-2.55,4.15-1.76,8,.13.64-.61,4.36-.93,7.37-.37,3.53-.13,4.39-.57,8.3a73.9,73.9,0,0,1-2.27,10.79Z"/><path class="cls-55" d="M168.36,314.73s1.49,2.2,3.56,2.35,2.85-1.92,3.41-1.05c.41.64-.06,12.46-2.56,13.59s-5.18-1.89-5.18-1.89l-1-3.87S168,315.24,168.36,314.73Z"/><path class="cls-56" d="M159.09,401.38c.78.58,6.09,1.9,5.57,4.87s-10.93-.35-10.7-3.71C154.13,400.06,158.3,400.81,159.09,401.38Z"/><path class="cls-56" d="M170.88,397.19c.52.82,5,4,3.4,6.57s-10-4.33-8.6-7.37C166.75,394.15,170.36,396.37,170.88,397.19Z"/><path class="cls-57" d="M172.65,361.35s-1.78,36.13-3.39,36.9-4.44.25-4.44.25l-2-36.88Z"/><path class="cls-57" d="M162.78,361.61s-2.87,39.46-4.48,40.6-4.44.25-4.44.25l-1.69-40.57Z"/><path class="cls-55" d="M160.16,324.93s-8.51.89-8.78,7.2S151,361.2,151,362.06s3.05,4.71,12.39,4.21c8.89-.47,10.1-3,10.1-4.54,0-1.9-.63-11.21-.88-19.64-.17-5.87,1.18-11.89.68-14.08C172.58,324.7,163.94,323.81,160.16,324.93Z"/><path class="cls-5" d="M165.45,320.93s0,6.92-.78,7.47-5-.18-5-2.56.05-5.52.05-5.52Z"/><path class="cls-1" d="M169.88,310.84s.63,13.9-3.86,14.57c-3.37.5-8-1-8.12-5.62s-1.61-11.33,1.58-11.34S170.24,307.75,169.88,310.84Z"/><path class="cls-17" d="M155.66,310s-.26,4.65-.18,6.72,2.46,4.28,3.28,3.46.46-8.43.46-8.43Z"/><path class="cls-17" d="M163.93,305.79s4.7,0,6.38,2.9c1.55,2.67.77,5.71-.4,5.51-.44-.07-.68-.63-1.54-1s-2-1.25-2.94-1.21a3.49,3.49,0,0,0-3.5,2.46c-.56,2.25-2.11,3.31-2.91,2.55-1.78-1.67-4.74-4.53-2.78-8.77S163.93,305.79,163.93,305.79Z"/><path class="cls-1" d="M159.39,317.49s-.95-2.42-2.39-1.39-.28,5,1.5,4.35S159.39,317.49,159.39,317.49Z"/><polygon class="cls-47" points="153.55 288.29 173.36 276.81 173.36 297.62 153.55 309.07 153.55 288.29"/><path class="cls-7" d="M175.57,292.1s-1.95-3.59-3.89-3.18-1.42,4.75-.51,5.75a10.58,10.58,0,0,0,3.57,2.25C175.23,297,176.07,293,175.57,292.1Z"/><path class="cls-55" d="M153.88,318.73c1.46-.61,1.26-1.24,1.73-.5s1,4.75,1.75,7.47,1.33,9-2.48,9-5-3.08-5.19-5.83-1.37-9.78-.64-10.09S152.43,319.34,153.88,318.73Z"/><path class="cls-7" d="M155.09,303.41s-.07,7.58-.32,8.91.9,6.27.51,8.1-5.21,2.06-5.84.38,0-6.3.29-9.21a58.21,58.21,0,0,1,1.93-9.83c.39-1.12-.35-6.43,3.61-7.18,2.13-.41,3.39.24,3,2.81A12.37,12.37,0,0,1,155.09,303.41Z"/><path class="cls-7" d="M555.17,349.68s1.25,11.11,1.41,14.61.08,6.67,0,8.08,1.95,4.7.17,6.67c-2.33,2.58-4.5.58-4-2.83s-.42-5.5-.58-7.5.08-19.42.08-19.42Z"/><path class="cls-58" d="M539.8,413.2c.78.47,6.07,1.55,5.55,4s-10.9-.29-10.66-3C534.86,412.12,539,412.73,539.8,413.2Z"/><path class="cls-59" d="M542.75,408.61c.64.73,5.56,3.12,4.43,5.92s-10.62-2.62-9.69-5.85C538.17,406.29,542.1,407.88,542.75,408.61Z"/><path class="cls-60" d="M551.71,373.68a52.08,52.08,0,0,1-1.42,18.5c-2.46,8.53-7.54,17.23-8.38,17.43-1.74.42-4.39-.68-4.39-.68l5.27-18.26.38-18.25Z"/><path class="cls-61" d="M543.51,373.54S540.64,413,539,414.14s-4.43.25-4.43.25l-1.69-40.57Z"/><path class="cls-62" d="M539.5,337s-7.13.74-7.39,7.05-.34,29.07-.34,29.93,3.06,4.71,12.39,4.21c8.89-.47,9.14-3.24,9.14-4.78,0-3.22-.68-26.68-2.37-31.87S543.28,335.9,539.5,337Z"/><path class="cls-5" d="M546.18,332.87s0,6.92-.78,7.47-5-.18-5-2.56.05-5.53.05-5.53Z"/><path class="cls-62" d="M547.87,338s5.23-.35,6.59,3.14,3.58,9.55,1.9,10.1a14.22,14.22,0,0,1-3.9,1C551.74,352.19,547.54,342.07,547.87,338Z"/><path class="cls-1" d="M550.6,322.77s.63,13.9-3.86,14.57c-3.37.5-8-1-8.12-5.62s-1.61-11.34,1.58-11.34S551,319.68,550.6,322.77Z"/><path class="cls-63" d="M536.38,322s-.26,4.64-.18,6.72,2.46,4.28,3.28,3.46.46-8.43.46-8.43Z"/><path class="cls-63" d="M544.66,317.72s4.58,0,6.2,3a1.76,1.76,0,0,1-.16,2.06,1.48,1.48,0,0,1-1.25.13,5,5,0,0,1-2.12,1,8.31,8.31,0,0,1-3.25-.79s-1.7,2.2-2.66,1.85c0,0,.11,5.58-1.67,3.91s-4.74-4.53-2.78-8.77S544.66,317.72,544.66,317.72Z"/><path class="cls-1" d="M540.12,329.42s-.94-2.42-2.39-1.39-.28,5,1.5,4.35S540.12,329.42,540.12,329.42Z"/><path class="cls-7" d="M529.72,347.45a46.77,46.77,0,0,0-2.08,10.73c-.17,3.13.81,14.9.81,14.9a25.66,25.66,0,0,1-.53,2.77c-.72,2.16-1.55,6.22,2,7.27,3,.89,2.63-4.11,1.9-8-.12-.64.44-12.88.95-16.78a30.14,30.14,0,0,1,3.3-9.6Z"/><path class="cls-62" d="M532.84,339.35c1.54-1.3,5.79-1.3,6.4,1.92s-2.5,13-3.86,13.24a10.54,10.54,0,0,1-4.4-.45,3.78,3.78,0,0,1-2.5-2.56C528.06,350.38,530.23,341.56,532.84,339.35Z"/><path class="cls-63" d="M544.53,332.59c-.25.33-.54,1.29,0,1.25s1.21-.46,1.63-.46.83.21,1.08.21a.73.73,0,0,0,.67-.46c.17-.33.62.21.67-.12s.08-1.12-.12-1.25a.87.87,0,0,0-.87-.12c-.42.17-.37.5-1.17.25a1.09,1.09,0,0,0-.92-.08A1.74,1.74,0,0,0,544.53,332.59Z"/></g></g></svg>