<?xml version="1.0" encoding="UTF-8"?>
<svg width="921px" height="820px" viewBox="0 0 921 820" version="1.1" xmlns="http://www.w3.org/2000/svg" xmlns:xlink="http://www.w3.org/1999/xlink">
    <!-- Generator: Sketch 43.1 (39012) - http://www.bohemiancoding.com/sketch -->
    <title>react</title>
    <desc>Created with Sketch.</desc>
    <defs></defs>
    <g id="Page-1" stroke="none" stroke-width="1" fill="none" fill-rule="evenodd">
        <g id="react" fill-rule="nonzero" fill="#61DAFB">
            <path d="M920.686789,410 C920.686789,349.016018 844.332927,291.221968 727.269512,255.382151 C754.284146,136.04119 742.277642,41.0938215 689.373984,10.6956522 C677.179878,3.56521739 662.922154,0.187643021 647.35122,0.187643021 L647.35122,42.0320366 C655.980894,42.0320366 662.922154,43.7208238 668.737805,46.9107551 C694.251626,61.5469108 705.320122,117.276888 696.690447,188.956522 C694.626829,206.594966 691.25,225.171625 687.122764,244.12357 C650.352846,235.116705 610.206098,228.173913 567.995732,223.670481 C542.669512,188.956522 516.405285,157.432494 489.953455,129.84897 C551.111585,72.993135 608.517683,41.8443936 647.538821,41.8443936 L647.538821,0 L647.538821,0 C595.948374,0 528.411789,36.778032 460.124797,100.576659 C391.837805,37.1533181 324.30122,0.750572082 272.710772,0.750572082 L272.710772,42.5949657 C311.544309,42.5949657 369.138008,73.5560641 430.296138,130.036613 C404.031911,157.620137 377.767683,188.956522 352.816667,223.670481 C310.418699,228.173913 270.271951,235.116705 233.502033,244.311213 C229.187195,225.546911 225.997967,207.345538 223.746748,189.894737 C214.929472,118.215103 225.810366,62.4851259 251.136585,47.6613272 C256.764634,44.2837529 264.081098,42.7826087 272.710772,42.7826087 L272.710772,0.938215103 L272.710772,0.938215103 C256.952236,0.938215103 242.694512,4.31578947 230.312805,11.4462243 C177.596748,41.8443936 165.777846,136.604119 192.980081,255.569794 C76.2918699,291.597254 0.313211382,349.203661 0.313211382,410 C0.313211382,470.983982 76.6670732,528.778032 193.730488,564.617849 C166.715854,683.95881 178.722358,778.906178 231.626016,809.304348 C243.820122,816.434783 258.077846,819.812357 273.836382,819.812357 C325.426829,819.812357 392.963415,783.034325 461.250407,719.235698 C529.537398,782.659039 597.073984,819.061785 648.664431,819.061785 C664.422967,819.061785 678.680691,815.684211 691.062398,808.553776 C743.778455,778.155606 755.597358,683.395881 728.395122,564.430206 C844.70813,528.590389 920.686789,470.796339 920.686789,410 Z M676.429472,284.842105 C669.488211,309.048055 660.858537,334.004577 651.103252,358.961098 C643.411585,343.949657 635.344715,328.938215 626.527439,313.926773 C617.897764,298.915332 608.705285,284.279176 599.512805,270.018307 C626.152236,273.95881 651.853659,278.837529 676.429472,284.842105 Z M590.507927,484.681922 C575.875,510.01373 560.86687,534.032037 545.295935,556.361556 C517.343293,558.800915 489.015447,560.114416 460.5,560.114416 C432.172154,560.114416 403.844309,558.800915 376.079268,556.549199 C360.508333,534.21968 345.312602,510.389016 330.679675,485.244851 C316.421951,460.663616 303.477439,435.707094 291.658537,410.562929 C303.289837,385.418764 316.421951,360.2746 330.492073,335.693364 C345.125,310.361556 360.13313,286.343249 375.704065,264.01373 C403.656707,261.574371 431.984553,260.26087 460.5,260.26087 C488.827846,260.26087 517.155691,261.574371 544.920732,263.826087 C560.491667,286.155606 575.687398,309.98627 590.320325,335.130435 C604.578049,359.71167 617.522561,384.668192 629.341463,409.812357 C617.522561,434.956522 604.578049,460.100686 590.507927,484.681922 Z M651.103252,460.28833 C661.23374,485.432494 669.863415,510.576659 676.992276,534.970252 C652.416463,540.974828 626.527439,546.04119 599.700407,549.981693 C608.892886,535.533181 618.085366,520.709382 626.715041,505.510297 C635.344715,490.498856 643.411585,475.299771 651.103252,460.28833 Z M460.875203,660.503432 C443.428252,642.489703 425.981301,622.411899 408.721951,600.457666 C425.606098,601.208238 442.865447,601.771167 460.312398,601.771167 C477.946951,601.771167 495.393902,601.395881 512.46565,600.457666 C495.581504,622.411899 478.134553,642.489703 460.875203,660.503432 Z M321.299593,549.981693 C294.660163,546.04119 268.95874,541.162471 244.382927,535.157895 C251.324187,510.951945 259.953862,485.995423 269.709146,461.038902 C277.400813,476.050343 285.467683,491.061785 294.284959,506.073227 C303.102236,521.084668 312.107114,535.720824 321.299593,549.981693 Z M459.937195,159.496568 C477.384146,177.510297 494.831098,197.588101 512.090447,219.542334 C495.206301,218.791762 477.946951,218.228833 460.5,218.228833 C442.865447,218.228833 425.418496,218.604119 408.346748,219.542334 C425.230894,197.588101 442.677846,177.510297 459.937195,159.496568 Z M321.111992,270.018307 C311.919512,284.466819 302.727033,299.290618 294.097358,314.489703 C285.467683,329.501144 277.400813,344.512586 269.709146,359.524027 C259.578659,334.379863 250.948984,309.235698 243.820122,284.842105 C268.395935,279.025172 294.284959,273.95881 321.111992,270.018307 Z M151.33252,504.947368 C84.9215447,476.613272 41.9607724,439.459954 41.9607724,410 C41.9607724,380.540046 84.9215447,343.199085 151.33252,315.052632 C167.46626,308.10984 185.100813,301.91762 203.298171,296.100686 C213.991463,332.878719 228.061585,371.157895 245.508537,410.375286 C228.249187,449.405034 214.366667,487.496568 203.860976,524.086957 C185.288415,518.270023 167.653862,511.89016 151.33252,504.947368 Z M252.262195,773.089245 C226.748374,758.453089 215.679878,702.723112 224.309553,631.043478 C226.373171,613.405034 229.75,594.828375 233.877236,575.87643 C270.647154,584.883295 310.793902,591.826087 353.004268,596.329519 C378.330488,631.043478 404.594715,662.567506 431.046545,690.15103 C369.888415,747.006865 312.482317,778.155606 273.461179,778.155606 C265.019106,777.967963 257.890244,776.279176 252.262195,773.089245 Z M697.253252,630.105263 C706.070528,701.784897 695.189634,757.514874 669.863415,772.338673 C664.235366,775.716247 656.918902,777.217391 648.289228,777.217391 C609.455691,777.217391 551.861992,746.256293 490.703862,689.775744 C516.968089,662.19222 543.232317,630.855835 568.183333,596.141876 C610.581301,591.638444 650.728049,584.695652 687.497967,575.501144 C691.812805,594.453089 695.189634,612.654462 697.253252,630.105263 Z M769.479878,504.947368 C753.346138,511.89016 735.711585,518.08238 717.514228,523.899314 C706.820935,487.121281 692.750813,448.842105 675.303862,409.624714 C692.563211,370.594966 706.445732,332.503432 716.951423,295.913043 C735.523984,301.729977 753.158537,308.10984 769.66748,315.052632 C836.078455,343.386728 879.039228,380.540046 879.039228,410 C878.851626,439.459954 835.890854,476.800915 769.479878,504.947368 Z" id="Shape"></path>
            <ellipse id="Oval" cx="460.312398" cy="410" rx="85.7339431" ry="85.7528604"></ellipse>
        </g>
    </g>
</svg>