<svg enable-background="new 0 0 512 512" viewBox="0 0 512 512" xmlns="http://www.w3.org/2000/svg"><path d="m373.539 129.839c-12.581-6.087-42.529-25-63.012-40.95 0 0-32.522-26.356-79.566-2.697-28.177 14.17-47.732 38.97-72.158 65.289-9.027 9.746-7.634 25.163 2.993 33.133 11.641 8.732 27.844 7.964 38.609-1.828l38.723-35.226c3.912-2.848 9.227-2.732 13.018.276 0 0 28.451 31.944 80.215 32.907 8.41 9.407 73.66 82.389 86.217 96.435 5.32 5.706 7.589 13.142 6.936 20.344h46.154v-165.198c-89.483-.798-89.148 1.86-98.129-2.485z" fill="#eab883"/><path d="m418.579 277.178c-1.066-1.193 11.251 12.584-86.217-96.435-51.764-.963-80.215-32.907-80.215-32.907-3.791-3.008-9.105-3.124-13.018-.276l-38.723 35.226c-10.765 9.792-26.968 10.56-38.609 1.828-10.628-7.971-12.021-23.387-2.993-33.133 21.271-21.227 40.341-49.289 72.157-65.289-9.557-2.791-29.862-8.084-40.272-3.294-24.699 11.364-52.528 41.289-64.21 46.941-8.961 4.335-10.007 1.707-86.15 2.485v165.199h51.738c58.268 0 165.283 111.819 165.283 111.819l2.299 2.597c9.919 10.638 26.583 11.22 37.22 1.301 9.716-9.06 11.015-23.732 3.614-34.315l1.943 2.085c9.587 10.282 25.668 11.67 36.461 2.66 9.381-7.831 11.837-20.581 7.17-30.999 10.026 9.339 25.7 9.484 35.875-.004 10.194-9.505 11.127-25.189 2.46-35.844 10.153 6.999 23.878 5.957 32.883-2.424 10.64-9.92 11.223-26.583 1.304-37.221z" fill="#f7cf9c"/><path d="m490.289 107.753c-11.991 0-21.711 9.72-21.711 21.711 0 .335 0 11.016 0 10.722 0 .391 0 4.005 0 3.891 0 .313 0 6.799 0 6.412 0 .106 0 6.287 0 6.181 0 .145 0 2.181 0 2.06 0 .831 0 3.616 0 3.51 0 .132 0 2.821 0 2.672 0 .195 0 5.896 0 5.57 0 .105 0 6.289 0 6.181 0 .322 0 9.762 0 9.461v113.714c0 11.991 9.72 21.711 21.711 21.711s21.711-9.72 21.711-21.711c0-.335 0-11.016 0-10.721 0-3.274 0-162.923 0-159.653 0-11.991-9.72-21.711-21.711-21.711z" fill="#efefef"/><path d="m21.711 107.753c-11.991 0-21.711 9.72-21.711 21.711v170.374c0 11.991 9.72 21.711 21.711 21.711s21.711-9.72 21.711-21.711c0-16.851 0-147.362 0-170.374-.001-11.991-9.721-21.711-21.711-21.711z" fill="#efefef"/><path d="m490.289 223.331c-11.991 0-21.711-9.719-21.711-21.711 0 .156 0 7.492 0 7.168v91.048c0 11.991 9.72 21.711 21.711 21.711s21.711-9.719 21.711-21.711c0-.335 0-11.016 0-10.721 0-21.101 0-65.223 0-87.495 0 11.992-9.72 21.711-21.711 21.711z" fill="#ddd"/><path d="m21.711 223.331c-11.991 0-21.711-9.719-21.711-21.71v98.217c0 11.991 9.72 21.711 21.711 21.711s21.711-9.719 21.711-21.711c0-5.741 0-94.716 0-88.988 0-.27 0-9.333 0-9.229-.001 11.991-9.721 21.71-21.711 21.71z" fill="#ddd"/><g fill="#eab883"><path d="m76.585 202.747c0-24.93 4.927-48.705 13.842-70.423h-50.096v165.199h51.738c.043-4.442 1.248-8.86 3.587-12.764-12.203-24.732-19.071-52.568-19.071-82.012z"/><path d="m190.146 300.162c-9.322-10.37-25.285-11.219-35.655-1.897-1.802 1.62-14.899 13.394-16.4 14.743l-3.926 3.53c-10.37 9.322-11.219 25.285-1.897 35.655s25.285 11.219 35.655 1.897c4.296-3.862 15.936-14.326 20.326-18.273 10.37-9.322 11.219-25.285 1.897-35.655z"/><path d="m223.904 337.714c-9.322-10.37-25.285-11.219-35.655-1.897-24.326 21.868-15.837 14.237-20.326 18.273-10.37 9.322-11.219 25.285-1.897 35.655s25.285 11.219 35.655 1.897c4.734-4.255 15.67-14.087 20.326-18.273 10.37-9.323 11.219-25.285 1.897-35.655z"/><path d="m257.662 375.266c-9.322-10.37-25.285-11.219-35.655-1.897-4.681 4.208-16.381 14.726-20.326 18.273-10.37 9.322-11.219 25.285-1.897 35.655s25.285 11.219 35.655 1.897c7.185-6.459 13.112-11.787 20.326-18.273 10.369-9.323 11.219-25.285 1.897-35.655z"/><path d="m156.389 262.611c-9.322-10.37-25.285-11.219-35.655-1.897-4.659 4.188-15.595 14.02-20.326 18.273-10.37 9.322-11.219 25.285-1.897 35.655s25.285 11.219 35.655 1.897l3.926-3.53 7.128-6.408 9.272-8.335c10.37-9.323 11.219-25.285 1.897-35.655z"/></g><path d="m120.661 294.68c-8.94-9.945-8.52-25.029.676-34.472-.868.728 2.225-2.037-20.929 18.778-10.37 9.323-11.219 25.285-1.897 35.655s25.285 11.22 35.654 1.897l3.927-3.529 7.128-6.408c9.575-8.633 9.43-8.419 10.461-9.482-10.377 8.736-25.885 7.723-35.02-2.439z" fill="#e0a773"/><path d="m154.419 332.232c-8.94-9.945-8.52-25.029.676-34.472-1.163.976.635-.581-9.875 8.841-.94.845 3.731-3.354-11.054 9.937-10.37 9.323-11.219 25.285-1.897 35.655s25.285 11.22 35.654 1.897c15.028-13.51 9.991-8.982 11.054-9.937 9.575-8.633 9.43-8.419 10.461-9.481-10.377 8.734-25.884 7.721-35.019-2.44z" fill="#e0a773"/><path d="m188.176 369.783c-8.94-9.945-8.52-25.029.676-34.472-.826.692-20.103 18.035-20.929 18.778-10.37 9.323-11.219 25.285-1.897 35.655s25.285 11.22 35.654 1.897c2.003-1.8 20.733-18.612 21.515-19.419-10.376 8.736-25.884 7.723-35.019-2.439z" fill="#e0a773"/><path d="m221.934 407.335c-8.94-9.945-8.52-25.029.676-34.472-.826.692-20.103 18.035-20.929 18.778-10.37 9.323-11.219 25.285-1.897 35.655s25.285 11.22 35.654 1.897c22.201-19.958 20.698-18.576 21.515-19.419-10.376 8.736-25.884 7.722-35.019-2.439z" fill="#e0a773"/></svg>